<?xml version="1.0" encoding="UTF-8"?>
<svg id="Layer_1" data-name="Layer 1" xmlns="http://www.w3.org/2000/svg" viewBox="0 0 46 46">
  <defs>
    <style>
      .cls-1 {
        fill: #f29b37;
      }

      .cls-2 {
        fill: #253d67;
      }
    </style>
  </defs>
  <path class="cls-2" d="M25.72,28.85c.09.1,2.2.64,2.57.78,2.56.96,3.97,3.1,4.13,5.82.12,2.11-1.1,3.49-3.21,3.64-4.03.28-8.37-.21-12.43,0-5.04-.34-3.4-7.32.13-9.12.99-.5,2.35-.62,3.23-1.08.56-.29-.24-.75-.49-1.06-2.57-3.18-1.3-9.44,3.56-9.28,4.53.15,5.56,6,3.31,9.1-.16.23-.99.97-.8,1.2ZM22.59,19.78c-3.17.35-3.61,4.21-2.47,6.59.49,1.02,1.79,1.52,1.3,2.82-.1.27-.27.52-.53.67-.76.45-2.27.65-3.18,1.05-1.37.61-2.32,1.79-2.69,3.24-.4,1.55-.51,3.31,1.41,3.74h13.06c1.95-.28,1.92-2.11,1.54-3.66s-1.35-2.76-2.83-3.38c-.86-.36-3.03-.69-3.47-1.4-.79-1.27.42-1.83.96-2.68,1.67-2.64.76-7.41-3.11-6.99Z"/>
  <path class="cls-2" d="M9.47,26.53c.15-.22-.36-.58-.49-.74-2.57-3.2-1.48-9.3,3.42-8.92,4.44.34,5,6.09,2.65,8.99-.14.17-.5.38-.42.63.06.17,2.09.69,2.43.82.49.18,1.6.54,1.12,1.27-.35.53-1.18-.06-1.62-.21-.94-.32-2.72-.53-3.06-1.53-.4-1.2.78-1.66,1.23-2.62,1.16-2.42.42-6.42-2.9-6.21-3.05.19-3.6,3.7-2.6,6.04.32.73.65.86,1.07,1.4.55.71.48,1.74-.37,2.16-1.45.72-2.95.51-4.29,1.85s-2.54,5.45.25,5.69c2.01.17,4.25-.14,6.28,0,.73.11.7,1.05.08,1.13-.35.05-.83-.02-1.21,0-1.53.07-3.12.16-4.66.08-3.45-.19-3.93-2.93-2.84-5.74.61-1.56,1.84-2.72,3.41-3.3.34-.13,2.43-.67,2.5-.78Z"/>
  <path class="cls-2" d="M33.61,16.89c4.73-.41,6.05,5.66,3.61,8.69-.27.33-1.09.77-.42,1.06.81.35,1.82.47,2.68.85,2.08.93,3.33,3.04,3.46,5.29.31,5.15-5.93,3.06-9.08,3.5-.77-.03-.77-.97-.06-1.13l6.61-.02c2.29-.7,1.33-4.04.19-5.38-1.28-1.51-2.73-1.39-4.36-2.07-.67-.28-.93-.73-.87-1.46s.56-.87.95-1.38c1.64-2.16,1.16-6.73-2.19-6.84s-4.1,4.17-2.68,6.57c.5.84,1.27.92,1.09,2.14-.05.35-.38.77-.7.92-.66.33-2.01.61-2.79.88-.36.12-1.06.61-1.27-.07-.22-.69.73-.98,1.24-1.16.34-.12,2.33-.61,2.39-.79.09-.26-.33-.51-.49-.7-2.34-2.93-1.72-8.52,2.67-8.9Z"/>
  <path class="cls-1" d="M22.8,6.86c.85-.25.81.74.97,1.26.33,1.03.59,1.48,1.64,1.89.6.23,1.99.22,1.6,1.14-.14.34-1.35.51-1.78.69-.66.29-.97.62-1.26,1.28-.2.45-.35,1.59-.68,1.79-.88.54-1-1.13-1.21-1.67-.28-.71-.56-1.1-1.28-1.41-.43-.18-1.57-.33-1.76-.64-.14-.23-.15-.49.03-.71s1.18-.34,1.56-.48c.89-.34,1.26-.79,1.57-1.68.12-.36.22-1.36.58-1.46ZM24.59,10.87c-.78-.22-1.18-.86-1.62-1.48-.2.77-.88,1.13-1.48,1.55.44.11.84.47,1.13.81.11.14.31.6.46.6.06,0,.5-.92.78-.99l.74-.49Z"/>
</svg>