<svg width="55" height="65" viewBox="0 0 55 65" fill="none" xmlns="http://www.w3.org/2000/svg">
<path d="M27.4998 0C17.0457 0 8.54149 8.50417 8.54149 18.9583C8.54149 29.4125 17.0457 37.9167 27.4998 37.9167C37.954 37.9167 46.4582 29.4125 46.4582 18.9583C46.4582 8.50417 37.954 0 27.4998 0ZM37.7563 18.3002L34.0702 22.0783L34.945 27.4354C35.0057 27.8114 34.9594 28.1969 34.8115 28.5479C34.6636 28.8988 34.42 29.2011 34.1085 29.4203C33.797 29.6394 33.4302 29.7666 33.0499 29.7872C32.6696 29.8079 32.2911 29.7212 31.9577 29.5371L27.4998 27.0752L23.0419 29.5398C22.7084 29.7261 22.329 29.8143 21.9475 29.7945C21.5659 29.7746 21.1978 29.6474 20.8854 29.4276C20.5729 29.2077 20.329 28.904 20.1815 28.5516C20.0341 28.1992 19.9891 27.8123 20.0519 27.4354L20.9267 22.0783L17.2434 18.3002C16.9827 18.0328 16.8008 17.6988 16.7176 17.3347C16.6344 16.9707 16.6532 16.5908 16.7718 16.2367C16.8905 15.8826 17.1045 15.5681 17.3903 15.3278C17.676 15.0874 18.0225 14.9304 18.3917 14.8742L23.4048 14.1077L25.6636 9.295C26.3298 7.86771 28.6725 7.86771 29.3388 9.295L31.5975 14.1077L36.6107 14.8742C36.9807 14.929 37.3283 15.0853 37.6149 15.3256C37.9016 15.5659 38.1161 15.8809 38.2348 16.2356C38.3534 16.5904 38.3715 16.9711 38.287 17.3355C38.2026 17.6999 38.0189 18.0338 37.7563 18.3002ZM11.1415 35.1542L0.66024 53.9771C0.308157 54.6271 0.33524 55.4396 0.74149 56.0625C1.14774 56.6854 1.85191 57.0646 2.61024 56.9833L10.9519 56.3604L14.6352 63.8625C14.9873 64.5396 15.6644 64.9729 16.3957 65H16.4498C17.1811 65 17.8852 64.5938 18.2373 63.9708L25.0623 51.8375L18.4269 40.1104C15.7038 38.9394 13.2307 37.257 11.1415 35.1542ZM54.3123 53.9771L43.7498 35.2625C40.2365 38.7775 35.6722 41.0502 30.7498 41.7354C29.6936 41.8979 28.6102 41.9792 27.4998 41.9792C26.3082 41.9792 25.1436 41.8979 24.0061 41.7083L27.3915 47.6937L36.5727 63.9708C36.9248 64.5938 37.6019 65 38.3332 65H38.3873C39.1457 64.9729 39.8227 64.5396 40.1748 63.8625L43.8852 56.3604L52.3894 57.0104C53.1477 57.0646 53.8519 56.7125 54.2581 56.0625C54.6644 55.4396 54.6915 54.6271 54.3123 53.9771Z" fill="#100701"/>
</svg>
