<?xml version="1.0" encoding="UTF-8"?>
<svg id="Layer_1" data-name="Layer 1" xmlns="http://www.w3.org/2000/svg" viewBox="0 0 46 46">
  <defs>
    <style>
      .cls-1 {
        fill: #253d67;
      }
    </style>
  </defs>
  <path class="cls-1" d="M21.49,5.02c.05-.1.32-.36.42-.43,1.01-.74,2.34.19,3.4.39.47-.92,1.31-1.64,2.33-1.88,2.38-.58,4.63,1.54,4.11,3.93,1.7.52,3.93.83,2.89,3.17,1.18.45,2.54.7,3.7,1.17,1.38.56,2.05,1.89,1.74,3.34l-8.68,27.44c-.5,1.2-1.58,1.91-2.89,1.78l-21.45-6.75c-1.24-.52-1.87-1.85-1.58-3.15L14.2,6.4c.36-1.07,2.04-2.01,3.11-1.67l3.89,1.23c.12-.28.16-.67.29-.93ZM22.66,5.57l-.86,2.73s.06.14.09.17l10.68,3.4c.06,0,.14-.02.18-.07.1-.1.87-2.56.85-2.7-.01-.08-.08-.15-.15-.19-.83-.33-1.82-.49-2.64-.83-.75-.31-.28-1.02-.27-1.63.03-2.04-2.57-2.94-3.78-1.32-.35.48-.36,1.19-.98,1.31-.43,0-2.96-1-3.11-.87ZM34.25,11.42l-.31,1c-.03.1-.48.52-.61.59-.29.15-.75.18-1.07.12l-10.74-3.39c-.65-.24-1.1-.86-1-1.57.03-.24.35-.89.19-1.01-1.13-.29-2.33-.86-3.46-1.1-.86-.19-1.57.17-1.91.98l-8.6,27.19c-.23.7.13,1.5.82,1.78l20.9,6.61c.84.23,1.54-.31,1.8-1.09l8.56-27.12c.17-.83-.21-1.52-1-1.85-1.11-.46-2.44-.69-3.57-1.13Z"/>
  <path class="cls-1" d="M21.75,23.39l9.63,3.03c.6.27.48,1.11-.16,1.24-3.28-.91-6.53-2.05-9.8-3.04-.66-.3-.39-1.28.33-1.22Z"/>
  <path class="cls-1" d="M19.47,30.59l9.57,3.01c.66.25.59,1.1-.1,1.26-3.28-.91-6.53-2.05-9.8-3.04-.66-.3-.39-1.28.33-1.22Z"/>
  <path class="cls-1" d="M24.02,16.2l9.57,3.01c.66.25.59,1.1-.1,1.26-3.26-.91-6.49-2.04-9.74-3.02-.72-.33-.5-1.26.27-1.24Z"/>
  <path class="cls-1" d="M17.27,14.28c.12.2.49,1.44.65,1.45l3.49-2.18c.74-.19,1.15.67.46,1.2-.81.64-2.83,1.89-3.76,2.38-.32.17-.51.27-.87.07-.41-.22-.95-2.11-1.22-2.59-.06-.74.82-1.01,1.23-.35Z"/>
  <path class="cls-1" d="M13.41,30.14s.05-.1.11-.14c1.12-.63,2.17-1.4,3.3-2.03.76-.23,1.19.64.55,1.16-1.13.92-2.83,1.6-4.01,2.52-.34.19-.73-.02-.92-.33-.21-.32-.65-1.44-.79-1.84s-.32-.87.17-1.11c.92-.45,1.14,1.15,1.45,1.66.03.05.07.14.14.11Z"/>
  <path class="cls-1" d="M19.34,20.72c.68.06.87.83.31,1.21l-4.05,2.54c-.16.07-.33.05-.49-.01-.57-.23-1-2.05-1.33-2.59-.13-.6.56-1.01,1.02-.64.28.22.72,1.69.86,1.7l3.27-2.08c.12-.07.27-.15.41-.14Z"/>
</svg>