<svg width="45" height="45" viewBox="0 0 45 45" fill="none" xmlns="http://www.w3.org/2000/svg">
<g clipPath="url(#clip0_8551_406)">
<path d="M41.8358 0H3.16406C2.67864 0 2.28516 0.393573 2.28516 0.878903V7.03131C2.28516 8.17714 3.01983 9.15456 4.04296 9.51729V18.6329C3.84248 28.1815 12.0917 36.8107 21.621 37.0691C21.6406 38.261 23.3595 38.2606 23.3786 37.0691C32.9086 36.8103 41.1571 28.1817 40.9568 18.6327C40.957 18.6328 40.957 9.51729 40.957 9.51729C41.98 9.15456 42.7148 8.17714 42.7148 7.03131V0.878903C42.7147 0.393573 42.3212 0 41.8358 0ZM4.04296 1.75781H40.9569V7.03131C40.9569 7.51594 40.5626 7.91012 40.078 7.91012H4.92186C4.43724 7.91012 4.04296 7.51594 4.04296 7.03131V1.75781ZM34.2929 30.4259C28.0505 36.9238 16.9491 36.9242 10.7069 30.4258C4.529 24.3307 5.93999 17.4237 5.80077 9.66793H39.1991C39.0635 17.4191 40.4629 24.3474 34.2929 30.4259Z" fill="white"/>
<path d="M14.9091 5.71289H30.0908C30.5762 5.71289 30.9697 5.31932 30.9697 4.83398C30.9697 4.34865 30.5762 3.95508 30.0908 3.95508H14.9091C13.7489 3.99612 13.7408 5.66851 14.9091 5.71289Z" fill="white"/>
<path d="M26.8503 41.44C25.6883 42.6021 24.1433 43.242 22.4999 43.242C20.8566 43.242 19.3116 42.6021 18.1496 41.44C17.8064 41.0968 17.2499 41.0968 16.9066 41.44C16.5634 41.7832 16.5634 42.3397 16.9066 42.683C18.4006 44.1771 20.387 44.9998 22.4999 44.9998C24.6128 44.9998 26.5992 44.1771 28.0933 42.683C28.4365 42.3398 28.4365 41.7833 28.0933 41.44C27.7502 41.0968 27.1936 41.0968 26.8503 41.44Z" fill="white"/>
<path d="M25.6073 40.1972C26.4011 39.3465 25.2161 38.16 24.3643 38.9543C23.8663 39.4523 23.2041 39.7265 22.4998 39.7265C21.7954 39.7265 21.1334 39.4523 20.6354 38.9543C20.2922 38.6112 19.7356 38.6112 19.3924 38.9543C19.0492 39.2976 19.0492 39.854 19.3924 40.1973C21.0282 41.902 23.9716 41.902 25.6073 40.1972Z" fill="white"/>
<path d="M22.5 15.9961C17.6537 15.9961 13.7109 19.9388 13.7109 24.7852C14.1528 36.429 30.849 36.4258 31.2891 24.7851C31.2891 19.9388 27.3463 15.9961 22.5 15.9961ZM22.5 31.8164C18.623 31.8164 15.4688 28.6622 15.4688 24.7852C15.8222 15.4701 29.1792 15.4726 29.5312 24.7852C29.5312 28.6622 26.377 31.8164 22.5 31.8164Z" fill="white"/>
<path d="M22.5 21.2695C20.5615 21.2695 18.9844 22.8466 18.9844 24.7852C19.1611 29.4427 25.8396 29.4414 26.0156 24.7851C26.0156 22.8466 24.4385 21.2695 22.5 21.2695ZM22.5 26.543C21.5307 26.543 20.7422 25.7544 20.7422 24.7852C20.8305 22.4564 24.1698 22.457 24.2578 24.7852C24.2578 25.7544 23.4693 26.543 22.5 26.543Z" fill="white"/>
<path d="M10.6348 11.4258C8.93856 11.4258 7.55859 12.8058 7.55859 14.502C7.71328 18.5773 13.557 18.5762 13.711 14.502C13.7109 12.8058 12.331 11.4258 10.6348 11.4258ZM10.6348 15.8203C9.90782 15.8203 9.31641 15.2289 9.31641 14.502C9.38268 12.7554 11.8872 12.7558 11.9532 14.502C11.9531 15.2289 11.3617 15.8203 10.6348 15.8203Z" fill="white"/>
</g>
<defs>
<clipPath id="clip0_8551_406">
<rect width="45" height="45" fill="white"/>
</clipPath>
</defs>
</svg>
