<svg width="40" height="40" viewBox="0 0 40 40" fill="none" xmlns="http://www.w3.org/2000/svg">
<path d="M36.1253 19.2236L33.535 14.3669V2.34211C33.535 1.05062 32.4844 0 31.1929 0H5.93586C4.64445 0 3.59375 1.05062 3.59375 2.34211V37.6578C3.59375 38.9494 4.64445 40 5.93586 40H34.0641C35.3556 40 36.4062 38.9494 36.4062 37.6579V20.3238C36.4066 19.9493 36.3095 19.5688 36.1253 19.2236ZM25.3115 1.5625H27.1581V7.8125H25.3115V1.5625ZM17.6411 1.5625H19.4877V7.8125H17.6411V1.5625ZM9.97062 1.5625H11.8173V7.8125H9.97062V1.5625ZM5.93586 1.5625H8.40812V8.59375C8.40812 9.02516 8.75797 9.375 9.18937 9.375H12.5985C13.0299 9.375 13.3798 9.02516 13.3798 8.59375V1.5625H16.0786V8.59375C16.0786 9.02516 16.4284 9.375 16.8598 9.375H20.269C20.7004 9.375 21.0502 9.02516 21.0502 8.59375V1.5625H23.7491V8.59375C23.7491 9.02516 24.0989 9.375 24.5303 9.375H27.9395C28.3709 9.375 28.7207 9.02516 28.7207 8.59375V1.5625H31.193C31.6229 1.5625 31.9726 1.91227 31.9726 2.34211V14.5622C31.9726 14.6905 32.0041 14.8167 32.0645 14.9298L34.7468 19.9589C34.8103 20.0781 34.8439 20.2038 34.8438 20.323V34.5312H28.7207V17.0768C28.7207 16.6454 28.3709 16.2955 27.9395 16.2955H9.18945C8.75805 16.2955 8.4082 16.6454 8.4082 17.0768V34.5312H5.15625V2.34211C5.15625 1.91227 5.50602 1.5625 5.93586 1.5625ZM27.1581 34.5312H9.97062V17.858H27.1581V34.5312ZM34.0641 38.4375H5.93586C5.50594 38.4375 5.15625 38.0877 5.15625 37.6579V36.0938H34.8438V37.6579C34.8438 38.0877 34.494 38.4375 34.0641 38.4375Z" fill="#4F70E6"/>
<path d="M14.697 25.4528C15.7299 24.4198 17.1033 23.851 18.564 23.851C20.0247 23.851 21.398 24.4198 22.4309 25.4528C22.5835 25.6053 22.7834 25.6816 22.9833 25.6816C23.6615 25.6937 24.0309 24.8285 23.5358 24.348C22.2077 23.0199 20.4421 22.2886 18.564 22.2886C16.6858 22.2886 14.9201 23.0199 13.5921 24.348C13.287 24.653 13.287 25.1477 13.5921 25.4529C13.8973 25.7578 14.3919 25.7578 14.697 25.4528Z" fill="#4F70E6"/>
<path d="M18.5642 25.4136C17.5207 25.4136 16.5397 25.8199 15.8021 26.5578C15.0964 27.314 16.1502 28.3687 16.907 27.6626C17.7793 26.7533 19.3493 26.7535 20.2215 27.6626C20.9765 28.3682 22.033 27.3149 21.3264 26.5577C20.5885 25.8199 19.6075 25.4136 18.5642 25.4136Z" fill="#4F70E6"/>
<path d="M18.5645 28.5386C18.133 28.5386 17.7832 28.8884 17.7832 29.3198C17.8215 30.3551 19.308 30.3549 19.346 29.3198C19.346 28.8884 18.9959 28.5386 18.5645 28.5386Z" fill="#4F70E6"/>
</svg>
