<svg width="45" height="45" viewBox="0 0 45 45" fill="none" xmlns="http://www.w3.org/2000/svg">
<path d="M44.2321 35.5332L35.5304 26.8315C35.0337 26.3349 34.3715 26.0613 33.6657 26.0613C32.96 26.0613 32.2978 26.3348 31.8011 26.8315L29.9364 28.6962L28.4045 27.1643L33.9985 21.5703C34.495 21.0736 34.7687 20.4114 34.7687 19.7057C34.7687 19 34.4952 18.3377 33.9985 17.841L31.2015 15.044L33.3999 12.8457C33.5536 13.4237 33.8567 13.97 34.3092 14.4225L37.1062 17.2194C37.4495 17.5626 38.006 17.5626 38.3494 17.2194L42.0786 13.4901C42.4219 13.1468 42.4219 12.5902 42.0786 12.2469L39.2817 9.44998C38.5399 8.70819 37.5464 8.36784 36.5735 8.42884C36.6345 7.45605 36.2942 6.46251 35.5524 5.72064L32.7555 2.92374C32.4122 2.58058 31.8558 2.58058 31.5123 2.92374L27.783 6.65299C27.4427 6.98025 27.4424 7.56883 27.783 7.89617L30.58 10.6932C31.0229 11.1361 31.5648 11.4458 32.1568 11.6024L29.9583 13.8009L27.1613 11.004C26.6647 10.5072 26.0025 10.2336 25.2967 10.2336C24.5911 10.2336 23.9288 10.5072 23.4321 11.0039L17.8381 16.5978L16.3062 15.0658L18.1708 13.2012C18.6675 12.7045 18.9411 12.0422 18.9411 11.3366C18.9411 10.6308 18.6675 9.96868 18.1708 9.47187L9.46922 0.77027C8.9725 0.273546 8.31026 0 7.60451 0C6.89884 0 6.2366 0.273546 5.73988 0.77027L0.767536 5.74261C-0.252195 6.72103 -0.252986 8.49362 0.767536 9.47195L9.46931 18.1737C9.98335 18.6878 10.6586 18.9447 11.3338 18.9447C12.0092 18.9447 12.6844 18.6877 13.1986 18.1737L15.0632 16.309L16.5951 17.8409L14.7305 19.7056C14.6962 19.7398 14.6649 19.7769 14.6368 19.8162L11.5291 24.1671C11.2794 24.5168 11.319 24.9958 11.6228 25.2996L12.6616 26.3384C12.1947 27.3184 12.3663 28.5293 13.1766 29.3397L13.7981 29.9612C13.4336 30.3224 13.4607 30.9314 13.857 31.258L13.8575 31.2585C14.2063 31.5496 14.7209 31.5257 15.0415 31.2046L15.6628 31.8259C16.4227 32.6093 17.6881 32.8185 18.6643 32.3411L19.7028 33.3797C20.0078 33.6844 20.4872 33.7223 20.8353 33.4734L25.1862 30.3657C25.2256 30.3375 25.2626 30.3062 25.2969 30.272L27.1615 28.4073L28.6934 29.9393L26.8288 31.8039C26.3322 32.3006 26.0585 32.9629 26.0585 33.6685C26.0585 34.3743 26.3321 35.0364 26.8288 35.5332L35.5305 44.2349C36.5087 45.2547 38.2816 45.2554 39.2598 44.2349L44.2322 39.2626C45.2519 38.2843 45.2526 36.5115 44.2321 35.5332ZM36.7955 10.1791C37.2457 10.1791 37.6959 10.3504 38.0387 10.6932L40.214 12.8686L37.7279 15.3548L35.5525 13.1794C34.4444 12.0869 35.2572 10.1612 36.7955 10.1791ZM29.6477 7.27462L32.1339 4.78854L34.3092 6.9639C35.4107 8.0521 34.618 9.97721 33.0661 9.96182C32.5945 9.96173 32.1531 9.78005 31.8231 9.45007L29.6477 7.27462ZM11.9555 16.9306C11.6128 17.2731 11.0551 17.2733 10.7123 16.9306L2.01062 8.22878C1.84598 8.06414 1.75527 7.84343 1.75527 7.60724C1.75527 7.37105 1.84598 7.15042 2.01062 6.98578L6.98296 2.01344C7.30679 1.67555 7.90222 1.67503 8.22605 2.01344L16.9277 10.7151C17.2655 11.0387 17.2662 11.6346 16.9277 11.9582L15.0631 13.8228L13.1985 11.9582L13.82 11.3367C14.1633 10.9934 14.1633 10.4368 13.82 10.0935C13.4767 9.75033 12.9203 9.75033 12.5768 10.0935L11.9553 10.715L10.7122 9.47195L11.3338 8.85041C11.677 8.50716 11.677 7.95058 11.3338 7.60724C10.9904 7.26408 10.434 7.26408 10.0906 7.60724L9.46905 8.22878L8.22614 6.98587L8.84768 6.36433C9.19093 6.02108 9.19093 5.46449 8.84768 5.12116C8.50434 4.77799 7.94793 4.77799 7.60451 5.12116L6.98296 5.7427C6.1313 4.94843 4.9457 6.13509 5.73979 6.98587L5.11833 7.60733C4.77508 7.95058 4.77508 8.50716 5.11833 8.8505C5.46167 9.19375 6.01817 9.19375 6.36151 8.8505L6.98296 8.22904L8.22605 9.47213L7.60459 10.0936C7.26134 10.4368 7.26134 10.9934 7.60459 11.3368C7.94793 11.68 8.50443 11.68 8.84777 11.3368L9.46931 10.7153L10.7124 11.9584L10.0909 12.5799C9.7476 12.9232 9.7476 13.4798 10.0909 13.8231C10.4342 14.1664 10.9907 14.1664 11.334 13.8231L11.9556 13.2016L13.8202 15.0662L11.9555 16.9306ZM20.4194 31.6101L19.392 30.5827C19.0487 30.2394 18.4922 30.2394 18.1488 30.5827C17.9843 30.7472 17.7636 30.8379 17.5274 30.8379C17.2912 30.8379 17.0705 30.7472 16.9059 30.5827L14.4197 28.0966C14.077 27.7539 14.077 27.1962 14.4197 26.8534C14.7603 26.5262 14.76 25.9376 14.4197 25.6103L13.3924 24.5829L15.4642 21.6824L23.32 29.5382L20.4194 31.6101ZM24.6753 28.4073L21.2568 24.9889L23.5218 22.7238C26.6864 24.3299 29.608 20.4146 27.1614 17.8411C24.5858 15.3934 20.6729 18.3188 22.2787 21.4806L20.0136 23.7457L16.5951 20.3272L24.6753 12.2471C24.9992 11.9091 25.5945 11.9086 25.9183 12.2471L32.7554 19.0841C33.098 19.4267 33.098 19.9844 32.7554 20.3271L24.6753 28.4073ZM23.6676 20.0165C23.6558 18.8557 25.1061 18.2554 25.9183 19.0841C25.9183 19.0842 25.9183 19.0842 25.9183 19.0842C26.4298 19.5749 26.4298 20.4581 25.9183 20.9488C25.1021 21.776 23.6577 21.1779 23.6676 20.0165ZM42.989 38.0194L38.0167 42.9917C37.852 43.1564 37.6313 43.2471 37.3952 43.2471C37.1589 43.2471 36.9383 43.1564 36.7737 42.9917L28.072 34.2901C27.734 33.9666 27.7336 33.3706 28.072 33.047L29.9366 31.1823L31.8012 33.047L31.1797 33.6685C30.8365 34.0118 30.8365 34.5684 31.1797 34.9117C31.523 35.2549 32.0795 35.2549 32.4229 34.9117L33.0444 34.2901L34.2875 35.5332L33.666 36.1548C33.3227 36.498 33.3227 37.0546 33.666 37.3979C34.0093 37.7412 34.5658 37.7412 34.9091 37.3979L35.5307 36.7764L36.7738 38.0195L36.1522 38.641C35.809 38.9843 35.809 39.5409 36.1522 39.8842C36.4956 40.2275 37.0521 40.2275 37.3954 39.8842L38.0169 39.2627C38.8685 40.0569 40.0541 38.8702 39.2601 38.0195L39.8817 37.3979C40.2249 37.0547 40.2249 36.4981 39.8817 36.1548C39.5383 35.8116 38.9819 35.8116 38.6385 36.1548L38.0169 36.7763L36.7739 35.5332L37.3954 34.9117C37.7386 34.5684 37.7386 34.0119 37.3954 33.6685C37.0521 33.3254 36.4956 33.3254 36.1522 33.6685L35.5307 34.2901L34.2876 33.047L34.9091 32.4254C35.2524 32.0822 35.2524 31.5256 34.9091 31.1823C34.5658 30.8391 34.0094 30.8391 33.666 31.1823L33.0444 31.8038L31.1798 29.9392L33.0444 28.0745C33.2091 27.9099 33.4298 27.8192 33.6659 27.8192C33.9021 27.8192 34.1228 27.9099 34.2874 28.0745L42.9891 36.7762C43.3269 37.0998 43.3274 37.6958 42.989 38.0194Z" fill="white"/>
<path d="M14.4198 36.7361C12.7763 36.7361 11.2312 36.0961 10.069 34.9339C8.9068 33.7717 8.26679 32.2266 8.26679 30.5831C8.26679 30.0977 7.87318 29.7041 7.38779 29.7041C6.90241 29.7041 6.50879 30.0977 6.50879 30.5831C6.50879 32.6962 7.33162 34.6829 8.82584 36.1771C10.3201 37.6713 12.3067 38.4941 14.4198 38.4941C14.9052 38.4941 15.2988 38.1005 15.2988 37.6151C15.2988 37.1297 14.9053 36.7361 14.4198 36.7361Z" fill="white"/>
<path d="M14.4198 33.2203C13.0023 33.2496 11.7535 32.0007 11.7828 30.5833C11.7405 29.42 10.068 29.4177 10.0248 30.5833C9.97598 32.9456 12.0575 35.0272 14.4198 34.9782C15.5828 34.9379 15.5838 33.2608 14.4198 33.2203Z" fill="white"/>
</svg>
