<svg width="40" height="40" viewBox="0 0 40 40" fill="none" xmlns="http://www.w3.org/2000/svg">
<path d="M30.9375 1.5625H26.8973C26.5749 0.653125 25.7061 0 24.6875 0H20C19.5685 0 19.2188 0.349844 19.2188 0.78125C19.2188 2.07359 18.1673 3.125 16.875 3.125C15.5827 3.125 14.5312 2.07359 14.5312 0.78125C14.5312 0.349844 14.1815 0 13.75 0H9.0625C7.77016 0 6.71875 1.05141 6.71875 2.34375V37.6562C6.71875 38.9486 7.77016 40 9.0625 40H13.75C14.1815 40 14.5312 39.6502 14.5312 39.2188C14.5312 37.9264 15.5827 36.875 16.875 36.875C18.1673 36.875 19.2188 37.9264 19.2188 39.2188C19.2188 39.6502 19.5685 40 20 40H24.6875C25.706 40 26.5749 39.3469 26.8973 38.4375H30.9375C32.2298 38.4375 33.2812 37.3861 33.2812 36.0938V3.90625C33.2812 2.61391 32.2298 1.5625 30.9375 1.5625ZM24.6875 38.4375H20.7028C19.7973 34.2962 13.9512 34.2991 13.0473 38.4375H9.0625C8.63172 38.4375 8.28125 38.087 8.28125 37.6562V2.34375C8.28125 1.91297 8.63172 1.5625 9.0625 1.5625H13.0473C13.9527 5.70375 19.7989 5.70086 20.7028 1.5625H24.6875C25.1183 1.5625 25.4688 1.91297 25.4688 2.34375V37.6562C25.4688 38.087 25.1183 38.4375 24.6875 38.4375ZM31.7188 36.0938C31.7188 36.5245 31.3683 36.875 30.9375 36.875H27.0312V35.2272H29.375C29.8065 35.2272 30.1562 34.8773 30.1562 34.4459C30.1562 34.0145 29.8065 33.6647 29.375 33.6647H27.0312V32.017H29.375C29.8065 32.017 30.1562 31.6671 30.1562 31.2357C30.1562 30.8043 29.8065 30.4545 29.375 30.4545H27.0312V28.8068H29.375C29.8065 28.8068 30.1562 28.457 30.1562 28.0255C30.1562 27.5941 29.8065 27.2443 29.375 27.2443H27.0312V25.5965H29.375C29.8065 25.5965 30.1562 25.2466 30.1562 24.8152C30.1562 24.3838 29.8065 24.034 29.375 24.034H27.0312V22.3862H29.375C29.8065 22.3862 30.1562 22.0364 30.1562 21.605C30.1562 21.1736 29.8065 20.8237 29.375 20.8237H27.0312V19.176H29.375C29.8065 19.176 30.1562 18.8262 30.1562 18.3948C30.1562 17.9634 29.8065 17.6135 29.375 17.6135H27.0312V15.9658H29.375C29.8065 15.9658 30.1562 15.6159 30.1562 15.1845C30.1562 14.7531 29.8065 14.4033 29.375 14.4033H27.0312V12.7555H29.375C29.8065 12.7555 30.1562 12.4057 30.1562 11.9743C30.1562 11.5429 29.8065 11.193 29.375 11.193H27.0312V9.54531H29.375C29.8065 9.54531 30.1562 9.19547 30.1562 8.76406C30.1562 8.33266 29.8065 7.98281 29.375 7.98281H27.0312V6.33523H29.375C29.8065 6.33523 30.1562 5.98539 30.1562 5.55398C30.1562 5.12258 29.8065 4.77273 29.375 4.77273H27.0312V3.125H30.9375C31.3683 3.125 31.7188 3.47547 31.7188 3.90625V36.0938Z" fill="#4F70E6"/>
<path d="M18.4376 7.98291H15.3125C14.0202 7.98291 12.9688 9.03432 12.9688 10.3267V29.6732C12.9688 30.9656 14.0202 32.0169 15.3125 32.0169H18.4376C19.7299 32.0169 20.7813 30.9656 20.7813 29.6732V10.3267C20.7813 9.03432 19.7299 7.98291 18.4376 7.98291ZM19.2188 29.6731C19.2188 30.1039 18.8684 30.4543 18.4376 30.4543H15.3125C14.8817 30.4543 14.5312 30.1039 14.5312 29.6731V10.3267C14.5312 9.89588 14.8817 9.54541 15.3125 9.54541H18.4376C18.8684 9.54541 19.2188 9.89588 19.2188 10.3267V29.6731Z" fill="#4F70E6"/>
</svg>
