<svg width="40" height="40" viewBox="0 0 40 40" fill="none" xmlns="http://www.w3.org/2000/svg">
<path d="M25.4786 7.20058H20.7827C20.7442 6.16349 19.2552 6.16373 19.2171 7.20058H14.5215C11.5006 7.20058 9.04297 9.65825 9.04297 12.6791V29.1147C9.59137 43.6258 30.4068 43.6315 30.9571 29.1145V12.6791C30.9571 9.65825 28.4994 7.20058 25.4786 7.20058ZM10.6083 20.1143H17.3746C18.1662 22.7076 21.8348 22.7058 22.6253 20.1143H29.3917V29.1148C29.3917 30.2182 29.2004 31.2938 28.8334 32.3044H24.4039L15.212 23.1124C15.0652 22.9657 14.8662 22.8832 14.6586 22.8832H10.6083V20.1143ZM20 13.4618C20.6474 13.4618 21.174 13.9885 21.174 14.6358V19.3317C21.174 19.979 20.6474 20.5057 20 20.5057C19.3527 20.5057 18.8261 19.979 18.8261 19.3317V14.6358C18.8261 13.9885 19.3527 13.4618 20 13.4618ZM29.3918 12.6791V18.549H22.7393V14.6357C22.7393 13.3972 21.913 12.3479 20.7827 12.0103V8.76579H25.4786C27.6363 8.76587 29.3918 10.5214 29.3918 12.6791ZM14.5215 8.76587H19.2174V12.0104C18.0871 12.348 17.2608 13.3972 17.2608 14.6358V18.549H10.6083V12.6792C10.6083 10.5213 12.3637 8.76587 14.5215 8.76587ZM26.6323 35.747C23.1211 39.4018 16.8788 39.402 13.3678 35.7469C9.99169 32.4097 10.654 28.7096 10.6083 24.4486H14.3344L23.5262 33.6404C23.6731 33.7872 23.8721 33.8697 24.0797 33.8697H28.0928C27.6924 34.5452 27.2035 35.1758 26.6323 35.747Z" fill="#4F70E6"/>
<path d="M16.0158 3.21574C17.0801 2.15142 18.4952 1.56529 20.0004 1.56529C21.5056 1.56529 22.9207 2.15142 23.985 3.21574C24.1379 3.36859 24.3382 3.44498 24.5384 3.44498C25.2178 3.45703 25.588 2.59041 25.0918 2.10892C23.732 0.748993 21.9238 0 20.0004 0C18.0771 0 16.2688 0.748993 14.9089 2.109C14.6033 2.41462 14.6033 2.91019 14.9089 3.21582C15.2147 3.52144 15.7101 3.52144 16.0158 3.21574Z" fill="#4F70E6"/>
<path d="M17.1775 4.37812C16.4707 5.13564 17.5259 6.19237 18.2844 5.48494C18.7426 5.0267 19.3519 4.77429 20 4.77429C20.6481 4.77429 21.2573 5.0267 21.7156 5.48494C21.8683 5.63779 22.0687 5.71418 22.269 5.71418C22.9492 5.72607 23.3179 4.85937 22.8224 4.37812C21.3368 2.82965 18.6631 2.82973 17.1775 4.37812Z" fill="#4F70E6"/>
</svg>
