<svg width="40" height="40" viewBox="0 0 40 40" fill="none" xmlns="http://www.w3.org/2000/svg">
<path d="M37.6563 6.71622H4.68749V5.93497C4.64929 4.89997 3.1632 4.89989 3.12499 5.93497V9.84121H0.781248C0.349765 9.84121 0 10.191 0 10.6225V19.9974C0 20.4289 0.349765 20.7787 0.781248 20.7787H3.12499V23.1224H0.781248C0.349765 23.1224 0 23.4722 0 23.9037V28.5912C0 29.0227 0.349765 29.3724 0.781248 29.3724H3.12499V34.0599C3.12499 34.4914 3.47476 34.8412 3.90624 34.8412C4.33773 34.8412 4.68749 34.4914 4.68749 34.0599V33.2787H37.6563C38.9486 33.2787 40 32.2273 40 30.9349V9.05996C40 7.76754 38.9487 6.71622 37.6563 6.71622ZM1.5625 19.2162V11.4037H3.12499V19.2162H1.5625ZM1.5625 27.8098V24.6849H3.12499V27.8098H1.5625ZM38.4375 30.9349C38.4375 31.3657 38.087 31.7162 37.6563 31.7162H4.68749V8.27871H37.6563C38.087 8.27871 38.4375 8.62918 38.4375 9.05996V30.9349Z" fill="#4F70E6"/>
<path d="M26.7188 9.84131C23.8448 9.84131 21.2459 11.0412 19.3966 12.9663H7.8125C7.38102 12.9663 7.03125 13.3161 7.03125 13.7476V19.9976C7.03125 20.429 7.38102 20.7788 7.8125 20.7788H16.5923C16.7234 22.4949 17.283 24.093 18.1639 25.4663H12.3864C11.443 22.4896 7.09828 23.0883 7.03133 26.2476C7.09859 29.4074 11.4436 30.0051 12.3864 27.0288H19.3966C25.6052 33.5739 36.8902 29.1204 36.8751 19.9975C36.875 14.3974 32.319 9.84131 26.7188 9.84131ZM9.76562 27.4195C9.11945 27.4195 8.59375 26.8938 8.59375 26.2476C8.65258 24.6962 10.8764 24.6951 10.9375 26.2457C10.9388 26.8922 10.4126 27.4197 9.76562 27.4195ZM8.59375 14.5288H18.1639C17.283 15.902 16.7234 17.5002 16.5923 19.2163H8.59375V14.5288ZM26.7188 28.5914C21.9793 28.5915 18.1235 24.7344 18.125 19.9952C18.5592 8.6124 34.8826 8.61654 35.3126 19.9977C35.3125 24.7362 31.4574 28.5914 26.7188 28.5914Z" fill="#4F70E6"/>
<path d="M26.7188 12.9663C22.8417 12.9663 19.6875 16.1205 19.6875 19.9976C20.041 29.3126 33.398 29.3101 33.7501 19.9975C33.75 16.1206 30.5958 12.9663 26.7188 12.9663ZM31.3007 22.9803C30.6981 22.0426 29.7488 21.0059 28.7668 20.2501C29.9398 20.1343 31.3334 20.234 32.1646 20.5008C32.0813 21.4094 31.7748 22.2544 31.3007 22.9803ZM23.7361 24.5795C24.6738 23.9769 25.7105 23.0276 26.4663 22.0456C26.5821 23.2186 26.4823 24.6122 26.2155 25.4434C25.307 25.3601 24.462 25.0537 23.7361 24.5795ZM21.3674 21.1279C22.4753 21.3709 23.9082 21.4235 25.0921 21.2672C24.3454 22.1777 23.2907 23.0917 22.5145 23.4915C21.9557 22.82 21.5542 22.013 21.3674 21.1279ZM22.1369 17.015C22.7395 17.9527 23.6888 18.9894 24.6707 19.7451C23.4977 19.861 22.1041 19.7612 21.273 19.4945C21.3563 18.5859 21.6627 17.7409 22.1369 17.015ZM29.7014 15.4157C28.7637 16.0183 27.727 16.9676 26.9712 17.9496C26.8554 16.7766 26.9552 15.3829 27.2219 14.5518C28.1305 14.6351 28.9755 14.9415 29.7014 15.4157ZM25.4492 18.371C24.5388 17.6243 23.6248 16.5696 23.225 15.7935C23.8964 15.2346 24.7034 14.8331 25.5884 14.6464C25.3511 15.7358 25.2891 17.1412 25.4492 18.371ZM27.9884 21.6243C28.8988 22.371 29.8128 23.4257 30.2125 24.2018C29.5411 24.7607 28.7341 25.1622 27.8491 25.3489C28.0865 24.2594 28.1484 22.854 27.9884 21.6243ZM28.3455 18.728C29.0922 17.8176 30.1468 16.9036 30.923 16.5039C31.4819 17.1753 31.8834 17.9822 32.0701 18.8673C30.9805 18.6299 29.5752 18.5679 28.3455 18.728Z" fill="#4F70E6"/>
</svg>
