<svg width="40" height="40" viewBox="0 0 40 40" fill="none" xmlns="http://www.w3.org/2000/svg">
<g clipPath="url(#clip0_8551_238)">
<path d="M37.6562 12.9688H39.2188C39.6502 12.9688 40 12.6189 40 12.1875V2.34375C40 1.05141 38.9486 0 37.6563 0H27.8125C27.3811 0 27.0312 0.349844 27.0312 0.78125V2.34375C27.0312 2.77453 26.6808 3.125 26.25 3.125H13.75C13.3192 3.125 12.9688 2.77453 12.9688 2.34375V0.78125C12.9688 0.349844 12.6189 0 12.1875 0H2.34375C1.05141 0 0 1.05141 0 2.34375V37.6562C0 38.9486 1.05141 40 2.34375 40H37.6563C38.9486 40 40 38.9486 40 37.6562V27.8125C40 27.3811 39.6502 27.0312 39.2188 27.0312H37.6562C37.2255 27.0312 36.875 26.6808 36.875 26.25V13.75C36.875 13.3192 37.2255 12.9688 37.6562 12.9688ZM37.6562 28.5938H38.4375V37.6562C38.4375 38.087 38.0871 38.4375 37.6563 38.4375H2.34375C1.91297 38.4375 1.5625 38.087 1.5625 37.6562V2.34375C1.5625 1.91297 1.91297 1.5625 2.34375 1.5625H11.4062V2.34375C11.4062 3.63609 12.4577 4.6875 13.75 4.6875H26.25C27.5423 4.6875 28.5938 3.63609 28.5938 2.34375V1.5625H37.6563C38.0871 1.5625 38.4375 1.91297 38.4375 2.34375V11.4062H37.6562C36.3639 11.4062 35.3125 12.4577 35.3125 13.75V26.25C35.3125 27.5423 36.3639 28.5938 37.6562 28.5938Z" fill="#4F70E6"/>
<path d="M24.6875 14.5312H15.3125C14.8811 14.5312 14.5312 14.8811 14.5312 15.3125V24.6875C14.5312 25.1189 14.8811 25.4688 15.3125 25.4688H21.5625C21.7697 25.4688 21.9684 25.3864 22.1149 25.2399L25.2399 22.1149C25.3864 21.9684 25.4688 21.7697 25.4688 21.5625V15.3125C25.4688 14.8811 25.1189 14.5312 24.6875 14.5312ZM23.9062 21.2389L21.2389 23.9062H16.0938V16.0938H23.9062V21.2389Z" fill="#4F70E6"/>
<path d="M33.3593 30.6249C32.123 30.6249 31.0755 31.4498 30.7386 32.578H25.4687V28.5938H26.2499C27.5423 28.5938 28.5937 27.5423 28.5937 26.25V25.4688H30.9374C31.3688 25.4688 31.7187 25.1189 31.7187 24.6875C31.7187 24.2561 31.3688 23.9062 30.9374 23.9062H28.5937V22.3438H30.9374C31.3688 22.3438 31.7187 21.9939 31.7187 21.5625C31.7187 21.1311 31.3688 20.7812 30.9374 20.7812H28.5937V19.2188H30.9374C31.3688 19.2188 31.7187 18.8689 31.7187 18.4375C31.7187 18.0061 31.3688 17.6562 30.9374 17.6562H28.5937V16.0938H30.9374C31.3688 16.0938 31.7187 15.7439 31.7187 15.3125C31.7187 14.8811 31.3688 14.5312 30.9374 14.5312H28.5937V13.75C28.5937 12.4577 27.5423 11.4062 26.2499 11.4062H25.4687V9.06258C25.4687 8.63117 25.1188 8.28133 24.6874 8.28133C24.256 8.28133 23.9062 8.63117 23.9062 9.06258V11.4062H22.3437V9.06258C22.3437 8.63117 21.9938 8.28133 21.5624 8.28133C21.131 8.28133 20.7812 8.63117 20.7812 9.06258V11.4062H19.2187V9.06258C19.2187 8.63117 18.8688 8.28133 18.4374 8.28133C18.006 8.28133 17.6562 8.63117 17.6562 9.06258V11.4062H16.0937V9.06258C16.0937 8.63117 15.7438 8.28133 15.3124 8.28133C14.881 8.28133 14.5312 8.63117 14.5312 9.06258V11.4062H13.7499C12.4576 11.4062 11.4062 12.4577 11.4062 13.75V14.5312H7.42188V9.26133C10.3986 8.31781 9.79984 3.9732 6.64055 3.90625C3.48086 3.97352 2.88312 8.31836 5.85938 9.26133V15.3125C5.85938 15.7439 6.20922 16.0938 6.64063 16.0938H11.4062V17.6562H9.0625C8.63109 17.6562 8.28125 18.0061 8.28125 18.4375C8.28125 18.8689 8.63109 19.2188 9.0625 19.2188H11.4062V20.7812H9.0625C8.63109 20.7812 8.28125 21.1311 8.28125 21.5625C8.28125 21.9939 8.63109 22.3438 9.0625 22.3438H11.4062V23.9062H9.0625C8.63109 23.9062 8.28125 24.2561 8.28125 24.6875C8.28125 25.1189 8.63109 25.4688 9.0625 25.4688H11.4062V26.25C11.4062 27.5423 12.4576 28.5938 13.7499 28.5938H14.5312V32.578H9.26133C8.31781 29.6013 3.9732 30.2001 3.90625 33.3594C3.97344 36.5192 8.31844 37.117 9.26133 34.1405H15.3124C15.7438 34.1405 16.0937 33.7907 16.0937 33.3593V28.5938H17.6562V30.9375C17.6562 31.3689 18.006 31.7188 18.4374 31.7188C18.8688 31.7188 19.2187 31.3689 19.2187 30.9375V28.5938H20.7812V30.9375C20.7812 31.3689 21.131 31.7188 21.5624 31.7188C21.9938 31.7188 22.3437 31.3689 22.3437 30.9375V28.5938H23.9062V33.3593C23.9062 33.7907 24.256 34.1405 24.6874 34.1405H30.7386C31.6824 37.1177 36.0267 36.5182 36.0937 33.3592C36.0937 31.8516 34.867 30.6249 33.3593 30.6249ZM5.46875 6.64062C5.46875 5.99445 5.99445 5.46875 6.64063 5.46875C8.19313 5.52758 8.19273 7.75391 6.64063 7.8125C5.99438 7.8125 5.46875 7.2868 5.46875 6.64062ZM6.64063 34.5312C5.99445 34.5312 5.46875 34.0055 5.46875 33.3593C5.52758 31.8068 7.75391 31.8072 7.8125 33.3593C7.8125 34.0055 7.2868 34.5312 6.64063 34.5312ZM12.9687 26.25V13.75C12.9687 13.3192 13.3191 12.9688 13.7499 12.9688H26.2499C26.6807 12.9688 27.0312 13.3192 27.0312 13.75V26.25C27.0312 26.6808 26.6807 27.0312 26.2499 27.0312H13.7499C13.3191 27.0312 12.9687 26.6808 12.9687 26.25ZM33.3593 34.5312C32.7131 34.5312 32.1874 34.0055 32.1874 33.3593C32.2463 31.8068 34.4726 31.8072 34.5312 33.3593C34.5312 34.0055 34.0055 34.5312 33.3593 34.5312Z" fill="#4F70E6"/>
</g>
<defs>
<clipPath id="clip0_8551_238">
<rect width="40" height="40" fill="white"/>
</clipPath>
</defs>
</svg>
