<svg width="45" height="45" viewBox="0 0 45 45" fill="none" xmlns="http://www.w3.org/2000/svg">
<path d="M44.1211 15.9081H33.3983C32.2345 15.9508 32.2332 17.6226 33.3983 17.6659H37.8808V19.4236H31.7595C28.4165 14.4579 29.3899 15.0349 23.3787 15.0291C23.3353 13.8643 21.6633 13.865 21.6205 15.0291C15.5941 15.0353 16.5865 14.4615 13.2406 19.4236H7.11913V17.6659H11.6015C12.087 17.6659 12.4804 17.2723 12.4804 16.787C12.4804 16.3016 12.087 15.9081 11.6015 15.9081H0.878905C0.393486 15.9081 0 16.3016 0 16.787C0 17.2723 0.393486 17.6659 0.878905 17.6659H5.36132V19.4236C3.71425 19.2766 2.31196 20.3648 2.28515 22.0603C2.28515 23.5142 3.46798 24.697 4.92187 24.697H9.90455L8.35838 27.375C8.12424 27.7824 8.00076 28.2357 8.00111 28.6851V35.244C8.13268 38.7352 13.142 38.7379 13.2746 35.244V29.3764L14.9869 26.4107C15.2986 26.4816 16.0207 26.4475 16.3476 26.4548V35.244C16.3476 36.6979 17.5305 37.8807 18.9843 37.8807H26.0156C27.4695 37.8807 28.6523 36.6979 28.6523 35.244V26.4548C28.9832 26.4474 29.6977 26.4817 30.0131 26.4107L31.7253 29.3764V35.2441C31.8572 38.7357 36.8661 38.7378 36.9987 35.2441V28.6861C36.9992 28.2361 36.8758 27.7829 36.6407 27.3736L35.0954 24.6971H40.078C41.5319 24.6971 42.7148 23.5143 42.7148 22.0604C42.6877 20.3647 41.2858 19.2767 39.6386 19.4237V17.666H44.1211C44.6064 17.666 45 17.2724 45 16.7871C45 16.3017 44.6064 15.9081 44.1211 15.9081ZM11.6346 28.7014C11.5574 28.8351 11.5168 28.9865 11.5168 29.1409V35.244C11.5168 35.7286 11.1225 36.1229 10.6379 36.1229C10.1533 36.1229 9.759 35.7286 9.759 35.244V28.6843C9.75892 28.5415 9.80154 28.3918 9.88161 28.2525L11.9343 24.697H12.9826C13.0918 25.0051 13.2568 25.2869 13.4653 25.5305L11.6346 28.7014ZM26.8945 35.244C26.8945 35.7286 26.5002 36.1229 26.0156 36.1229H18.9843C18.4997 36.1229 18.1054 35.7286 18.1054 35.244V22.0603C18.1054 21.5757 18.4997 21.1814 18.9843 21.1814H26.0156C26.5002 21.1814 26.8945 21.5757 26.8945 22.0603V35.244ZM35.1175 28.2509C35.1985 28.3919 35.2412 28.5416 35.241 28.6851V35.244C35.241 35.7286 34.8467 36.1229 34.3621 36.1229C33.8775 36.1229 33.4832 35.7286 33.4832 35.244V29.1409C33.4832 28.9865 33.4426 28.8351 33.3654 28.7014L31.5347 25.5306C31.7431 25.287 31.9081 25.0051 32.0173 24.6971H33.0656L35.1175 28.2509ZM40.957 22.0603C40.957 22.5449 40.5627 22.9392 40.078 22.9392H31.2891C30.8038 22.9392 30.4102 23.3328 30.4102 23.8181C30.4102 24.3027 30.0159 24.697 29.5313 24.697H28.6523V22.0603C28.6523 20.6064 27.4695 19.4236 26.0156 19.4236H18.9843C17.5305 19.4236 16.3476 20.6064 16.3476 22.0603V24.697H15.4687C14.9841 24.697 14.5898 24.3027 14.5898 23.8181C14.5898 23.3328 14.1963 22.9392 13.7109 22.9392H4.92187C4.43724 22.9392 4.04296 22.5449 4.04296 22.0603C4.04296 21.5757 4.43724 21.1814 4.92187 21.1814H13.7109C14.0048 21.1814 14.2792 21.0345 14.4422 20.79L16.2 18.1533C16.5184 17.6757 17.111 16.7869 17.666 16.7869H27.3339C27.8888 16.7869 28.4814 17.6758 28.7999 18.1533L30.5578 20.79C30.7207 21.0345 30.9952 21.1814 31.289 21.1814H40.078C40.5627 21.1814 40.957 21.5757 40.957 22.0603Z" fill="white"/>
<path d="M23.3789 29.2424V23.8184C23.3789 23.333 22.9854 22.9395 22.5 22.9395C22.0147 22.9395 21.6211 23.333 21.6211 23.8184V29.2424C18.8688 30.2611 19.5279 34.3092 22.5 34.3652C25.4726 34.3089 26.1309 30.2606 23.3789 29.2424ZM22.5 32.6074C22.0153 32.6074 21.621 32.2131 21.621 31.7285C21.6653 30.5641 23.3348 30.5645 23.3789 31.7285C23.3789 32.2131 22.9847 32.6074 22.5 32.6074Z" fill="white"/>
<path d="M18.1494 10.679C19.3114 9.51688 20.8564 8.87695 22.4997 8.87695C24.1431 8.87695 25.6881 9.51688 26.8501 10.679C27.0218 10.8505 27.2467 10.9364 27.4716 10.9364C28.2346 10.9499 28.6501 9.97664 28.0931 9.43603C26.599 7.94188 24.6125 7.11914 22.4997 7.11914C20.3869 7.11914 18.4004 7.94188 16.9063 9.43594C16.5631 9.77915 16.5631 10.3357 16.9063 10.679C17.2495 11.0221 17.8061 11.0221 18.1494 10.679Z" fill="white"/>
<path d="M19.3922 11.9217C18.5985 12.7724 19.7833 13.9589 20.6351 13.1646C21.1332 12.6666 21.7954 12.3923 22.4996 12.3923C23.2038 12.3923 23.8659 12.6666 24.3641 13.1646C24.5356 13.3363 24.7606 13.4221 24.9855 13.4221C25.7493 13.4354 26.1635 12.4619 25.6069 11.9217C23.9709 10.2169 21.028 10.2169 19.3922 11.9217Z" fill="white"/>
</svg>
