<svg width="45" height="45" viewBox="0 0 45 45" fill="none" xmlns="http://www.w3.org/2000/svg">
<g clipPath="url(#clip0_8551_426)">
<path d="M11.4333 19.337C15.794 19.337 19.3417 15.7893 19.3417 11.4286C18.9441 0.951313 3.92085 0.9543 3.5249 11.4287C3.5249 15.7893 7.07259 19.337 11.4333 19.337ZM11.4333 5.27762C14.825 5.27762 17.5843 8.03693 17.5843 11.4286C17.275 19.5775 5.5903 19.5752 5.28231 11.4286C5.28231 8.03693 8.04162 5.27762 11.4333 5.27762Z" fill="white"/>
<path d="M11.4334 14.504C13.1292 14.504 14.5088 13.1244 14.5088 11.4285C14.3542 7.35398 8.51195 7.35512 8.35791 11.4285C8.35791 13.1243 9.73757 14.504 11.4334 14.504ZM11.4334 10.1104C12.1602 10.1104 12.7514 10.7017 12.7514 11.4285C12.6853 13.1747 10.1812 13.1743 10.1153 11.4285C10.1153 10.7017 10.7065 10.1104 11.4334 10.1104Z" fill="white"/>
<path d="M42.3639 20.1427H21.099V17.5108C25.9012 10.0891 20.3323 -0.0814625 11.4332 0.00544149C2.5354 -0.0819018 -3.03551 10.0907 1.76758 17.5107V42.3591C1.76758 43.8127 2.95015 44.9952 4.40361 44.9952H18.463C19.9165 44.9952 21.099 43.8127 21.099 42.3591V41.2318H42.3639C43.8174 41.2318 45 40.0492 45 38.5956V22.7789C45 21.3253 43.8174 20.1427 42.3639 20.1427ZM11.4333 1.76276C16.763 1.76276 21.0991 6.09882 21.0991 11.4285C20.6132 24.2337 2.25158 24.2302 1.76758 11.4284C1.76758 6.09874 6.10356 1.76276 11.4333 1.76276ZM8.79723 22.5446C10.4784 22.952 12.3883 22.952 14.0695 22.5446V36.8381C14.0695 38.2917 12.8869 39.4743 11.4333 39.4743C9.97979 39.4743 8.79723 38.2917 8.79723 36.8381V22.5446ZM18.463 43.2378H4.40361C3.9191 43.2378 3.525 42.8437 3.525 42.3591V19.664C4.53665 20.6359 5.72642 21.4237 7.03982 21.9729V36.8381C7.03982 39.2607 9.01075 41.2317 11.4333 41.2317C13.8559 41.2317 15.8269 39.2607 15.8269 36.8381V21.9729C17.1402 21.4236 18.33 20.6359 19.3416 19.664V42.3591C19.3416 42.8436 18.9474 43.2378 18.463 43.2378ZM43.2426 38.5956C43.2426 39.0801 42.8484 39.4743 42.3639 39.4743H21.099V21.9001H42.3639C42.8484 21.9001 43.2426 22.2943 43.2426 22.7789V38.5956Z" fill="white"/>
<path d="M40.6065 23.6577H23.7352C23.2499 23.6577 22.8564 24.0512 22.8564 24.5364V36.8383C22.8564 37.3235 23.2499 37.717 23.7352 37.717H40.6065C41.0917 37.717 41.4852 37.3235 41.4852 36.8383V24.5364C41.4852 24.0512 41.0917 23.6577 40.6065 23.6577ZM39.7278 35.9596H24.6139V25.4151H39.7278V35.9596Z" fill="white"/>
<path d="M29.9386 34.3992C30.3717 34.5151 30.8301 34.4559 31.2212 34.229L34.8177 32.1525C35.9301 31.5341 35.933 29.8392 34.8144 29.2234L31.3152 27.203C30.2278 26.4459 28.6556 27.2839 28.6805 28.6116V32.7634C28.6719 33.5099 29.2104 34.218 29.9386 34.3992ZM30.4379 28.7257L33.8379 30.6889L30.4379 32.652V28.7257Z" fill="white"/>
</g>
<defs>
<clipPath id="clip0_8551_426">
<rect width="45" height="45" fill="white"/>
</clipPath>
</defs>
</svg>
