<svg width="40" height="40" viewBox="0 0 40 40" fill="none" xmlns="http://www.w3.org/2000/svg">
<path d="M28.9277 26.4744C26.1185 25.2872 22.7008 26.1331 20.784 28.5035V24.9998H22.3465C23.6388 24.9998 24.6902 23.9484 24.6902 22.6561V17.9687C24.6902 16.7727 24.7698 16.5155 26.8406 13.7994C31.151 8.25744 27.0318 -0.0606807 20.0026 0.000333758C12.9734 -0.0574776 8.85367 8.25345 13.165 13.7995C15.2357 16.5156 15.3153 16.7727 15.3153 17.9687V22.6561C15.3153 23.9485 16.3666 24.9998 17.659 24.9998H19.2214V28.5035C17.3043 26.1331 13.8872 25.2872 11.0776 26.4744C10.8193 26.5811 10.6377 26.8178 10.6014 27.095C9.92482 32.0356 14.619 36.1435 19.4128 34.8376C20.1217 37.5453 22.5209 39.6589 25.3046 39.9928C25.7236 40.0507 26.1268 39.7499 26.1811 39.3203C26.2374 38.8925 25.9362 38.5 25.5084 38.4438C24.0532 38.2522 22.7596 37.5054 21.866 36.3408C21.5402 35.9162 21.2793 35.447 21.0901 34.95C25.7348 35.8793 30.0653 31.8026 29.4037 27.095C29.3677 26.8179 29.1861 26.5812 28.9277 26.4744ZM16.8779 18.7499H23.1278V20.3124H16.8779V18.7499ZM14.4075 12.8521C10.8817 8.31572 14.2522 1.51382 20.0029 1.5628C23.8798 1.56273 27.0339 4.71688 27.0339 8.59384C27.161 12.5596 23.372 14.4801 23.164 17.1874H20.7841V10.48L22.1177 9.14633C22.4228 8.84125 22.4228 8.34658 22.1177 8.04143C21.8126 7.73643 21.318 7.73643 21.0128 8.04143L20.0027 9.05149L18.9927 8.04143C18.2361 7.33558 17.1819 8.38994 17.8879 9.14633L19.2215 10.48V17.1874H16.8416C16.7086 15.9673 16.1599 15.1506 14.4075 12.8521ZM16.8779 22.6561V21.8748H23.1278V22.6561C23.1278 23.0868 22.7773 23.4373 22.3465 23.4373H17.6591C17.2283 23.4373 16.8779 23.0868 16.8779 22.6561ZM14.2545 32.3767C12.8258 31.2803 12.0292 29.5437 12.1102 27.7595C15.2527 26.7001 18.7932 28.9134 19.2151 32.1964C19.214 32.2058 19.2129 32.2151 19.2119 32.2245L16.1655 29.8865C15.8231 29.6237 15.3328 29.6882 15.0701 30.0306C14.8075 30.3729 14.8719 30.8632 15.2142 31.126L18.2685 33.47C16.8569 33.6405 15.4075 33.2615 14.2545 32.3767ZM25.7511 32.3767C24.598 33.2616 23.1486 33.6408 21.7371 33.4701L24.7914 31.126C25.1337 30.8633 25.1982 30.3729 24.9355 30.0306C24.6728 29.6883 24.1824 29.6237 23.8402 29.8865L20.7937 32.2245C20.7927 32.2153 20.7916 32.206 20.7905 32.1967C21.2126 28.9128 24.753 26.7006 27.8953 27.7596C27.9763 29.5438 27.1798 31.2805 25.7511 32.3767Z" fill="#4F70E6"/>
<path d="M29.5022 3.89138C29.6347 3.89138 29.7691 3.85755 29.8921 3.78654L32.0983 2.51279C32.9756 1.96552 32.2309 0.673177 31.317 1.15966L29.1109 2.43341C28.4199 2.83755 28.7135 3.89091 29.5022 3.89138Z" fill="#4F70E6"/>
<path d="M33.5181 7.8125H30.9707C30.5392 7.8125 30.1895 8.16234 30.1895 8.59373C30.1895 9.02513 30.5392 9.37497 30.9707 9.37497H33.5181C34.5526 9.337 34.5537 7.85094 33.5181 7.8125Z" fill="#4F70E6"/>
<path d="M32.0979 14.6749L29.8918 13.4012C28.9792 12.9154 28.2323 14.2059 29.1105 14.7543L31.3167 16.0281C31.4397 16.0991 31.574 16.1329 31.7066 16.1329C32.4946 16.1324 32.7895 15.0796 32.0979 14.6749Z" fill="#4F70E6"/>
<path d="M7.90738 2.51268L10.1135 3.78643C10.2366 3.85744 10.3709 3.89127 10.5035 3.89127C11.2915 3.8908 11.5864 2.83783 10.8948 2.4333L8.68863 1.15955C7.77597 0.673613 7.02925 1.96424 7.90738 2.51268Z" fill="#4F70E6"/>
<path d="M9.8159 8.59373C9.8159 8.16234 9.46614 7.8125 9.03466 7.8125H6.48729C6.05581 7.8125 5.70605 8.16234 5.70605 8.59373C5.70605 9.02513 6.05581 9.37497 6.48729 9.37497H9.03466C9.46614 9.37497 9.8159 9.02521 9.8159 8.59373Z" fill="#4F70E6"/>
<path d="M11.1807 13.6872C10.9649 13.3135 10.4871 13.1854 10.1135 13.4012L7.90736 14.675C7.53369 14.8908 7.40564 15.3685 7.62143 15.7422C7.83838 16.1193 8.32158 16.2419 8.68861 16.0281L10.8948 14.7544C11.2685 14.5387 11.3965 14.0609 11.1807 13.6872Z" fill="#4F70E6"/>
</svg>
