<svg width="45" height="45" viewBox="0 0 45 45" fill="none" xmlns="http://www.w3.org/2000/svg">
<g clipPath="url(#clip0_8551_416)">
<path d="M0.878906 12.3048H4.39453C4.87995 12.3048 5.27344 11.9112 5.27344 11.4259V5.27344H11.4258C11.9112 5.27344 12.3047 4.87986 12.3047 4.39453V0.878906C12.3047 0.393574 11.9112 0 11.4258 0H0.878906C0.393574 0 0 0.393574 0 0.878906V11.4259C0 11.9112 0.393574 12.3048 0.878906 12.3048ZM1.75781 1.75781H10.5469V3.51562H4.39453C3.90911 3.51562 3.51562 3.9092 3.51562 4.39453V10.547H1.75781V1.75781Z" fill="white"/>
<path d="M11.4259 39.7266H5.27344V33.5742C5.27344 33.0889 4.87995 32.6953 4.39453 32.6953H0.878906C0.393486 32.6953 0 33.0889 0 33.5742V44.1211C0 44.6064 0.393486 45 0.878906 45H11.4258C11.9112 45 12.3047 44.6064 12.3047 44.1211V40.6055C12.3048 40.12 11.9113 39.7266 11.4259 39.7266ZM10.547 43.2422H1.75781V34.4531H3.51562V40.6055C3.51562 41.0908 3.90911 41.4844 4.39453 41.4844H10.5469L10.547 43.2422Z" fill="white"/>
<path d="M44.1212 32.6953H40.6056C40.1201 32.6953 39.7267 33.0889 39.7267 33.5742V39.7266H33.5742C33.0888 39.7266 32.6953 40.1202 32.6953 40.6056V44.1212C32.6953 44.6065 33.0888 45.0001 33.5742 45.0001H44.1211C44.6065 45.0001 45 44.6065 45 44.1212V33.5742C45.0001 33.0888 44.6066 32.6953 44.1212 32.6953ZM43.2423 43.2423H34.4532V41.4845H40.6056C41.0911 41.4845 41.4845 41.0909 41.4845 40.6056V34.4531H43.2424L43.2423 43.2423Z" fill="white"/>
<path d="M44.1211 0H33.5742C33.0888 0 32.6953 0.393574 32.6953 0.878906V4.39453C32.6953 4.87986 33.0888 5.27344 33.5742 5.27344H39.7266V11.4258C39.7266 11.9111 40.12 12.3047 40.6055 12.3047H44.1211C44.6065 12.3047 45 11.9111 45 11.4258V0.878906C45 0.393574 44.6065 0 44.1211 0ZM43.2422 10.5469H41.4844V4.39453C41.4844 3.9092 41.0909 3.51562 40.6055 3.51562H34.4531V1.75781H43.2422V10.5469Z" fill="white"/>
<path d="M7.55859 8.43749V36.5624C7.55859 37.0477 7.95208 37.4413 8.43749 37.4413H36.5623C37.0477 37.4413 37.4412 37.0477 37.4412 36.5624V8.43749C37.4412 7.95217 37.0477 7.55859 36.5623 7.55859H8.43749C7.95217 7.55859 7.55859 7.95217 7.55859 8.43749ZM9.3164 9.3164H35.6834V35.6835H9.3164V9.3164Z" fill="white"/>
<path d="M22.4999 16.3037C17.8756 16.3037 13.5535 18.492 11.2204 22.0146C11.0255 22.3089 11.0255 22.6911 11.2204 22.9854C13.5536 26.5079 17.8757 28.6963 22.4999 28.6963C27.1242 28.6963 31.4463 26.508 33.7795 22.9854C33.9743 22.6911 33.9743 22.3089 33.7795 22.0146C31.4463 18.492 27.1243 16.3037 22.4999 16.3037ZM22.4999 26.8945C20.0768 26.8945 18.1054 24.9231 18.1054 22.5C18.3263 16.678 26.6744 16.6796 26.8944 22.5001C26.8944 24.9231 24.9231 26.8945 22.4999 26.8945ZM13.0295 22.5C14.1185 21.0579 15.6176 19.9083 17.3479 19.1406C16.0291 21.0417 16.0292 23.9583 17.3479 25.8594C15.6176 25.0917 14.1185 23.9421 13.0295 22.5ZM27.652 25.8593C28.9708 23.9582 28.9707 21.0416 27.652 19.1405C29.3824 19.9082 30.8814 21.0578 31.9704 22.4999C30.8814 23.9421 29.3823 25.0917 27.652 25.8593Z" fill="white"/>
<path d="M22.5 19.8633C21.0461 19.8633 19.8633 21.0461 19.8633 22.5C19.9958 25.9931 25.0047 25.9922 25.1367 22.5C25.1367 21.0461 23.9539 19.8633 22.5 19.8633ZM22.5 23.3789C22.0154 23.3789 21.6211 22.9846 21.6211 22.5C21.6653 21.3356 23.3349 21.336 23.3789 22.5C23.3789 22.9846 22.9847 23.3789 22.5 23.3789Z" fill="white"/>
</g>
<defs>
<clipPath id="clip0_8551_416">
<rect width="45" height="45" fill="white"/>
</clipPath>
</defs>
</svg>
