<svg width="45" height="45" viewBox="0 0 45 45" fill="none" xmlns="http://www.w3.org/2000/svg">
<path d="M40.6055 11.0742H12.8321V9.31638H36.5624C38.0163 9.31638 39.1992 8.13355 39.1992 6.67967C39.1992 5.22579 38.0163 4.04296 36.5624 4.04296H12.8321V3.16406C12.8321 2.67873 12.4385 2.28516 11.9532 2.28516H8.43756C6.98367 2.28516 5.80085 3.46798 5.80085 4.92186V11.0742H4.39451C1.97138 11.0742 0 13.0456 0 15.4687V38.3202C0 40.7433 1.97138 42.7147 4.39451 42.7147H40.6055C43.0286 42.7147 45 40.7433 45 38.3202V15.4687C45 13.0456 43.0286 11.0742 40.6055 11.0742ZM36.5624 5.80077C37.7249 5.8441 37.7283 7.51384 36.5624 7.55857H12.8321V5.80077H36.5624ZM7.55865 4.92186C7.55865 4.43724 7.95293 4.04296 8.43756 4.04296H11.0743V11.0742H7.55865V4.92186ZM4.39451 12.832H40.6055C42.0594 12.832 43.2422 14.0148 43.2422 15.4687V34.8067C42.5073 34.2537 41.594 33.9257 40.6055 33.9257H33.9257V17.2265C33.9257 15.7726 32.7429 14.5898 31.289 14.5898H13.711C12.2571 14.5898 11.0743 15.7726 11.0743 17.2265V33.9257H4.39451C3.40601 33.9257 2.49274 34.2537 1.75781 34.8067V15.4687C1.75781 14.0148 2.94063 12.832 4.39451 12.832ZM32.1679 33.9257H12.8321V17.2265C12.8321 16.7419 13.2263 16.3476 13.711 16.3476H31.289C31.7737 16.3476 32.1679 16.7419 32.1679 17.2265V33.9257ZM40.6055 40.9569H4.39451C2.94063 40.9569 1.75781 39.7741 1.75781 38.3202C1.75781 36.8663 2.94063 35.6835 4.39451 35.6835H40.6055C44.0883 35.8112 44.1072 40.8214 40.6055 40.9569Z" fill="white"/>
<path d="M8.87673 37.4414H5.36111C4.19744 37.4841 4.19594 39.156 5.36111 39.1992H8.87673C9.36206 39.1992 9.75564 38.8056 9.75564 38.3203C9.75564 37.835 9.36215 37.4414 8.87673 37.4414Z" fill="white"/>
<path d="M13.2718 37.4414C12.7862 37.4411 12.3926 37.8347 12.3926 38.3203C12.4358 39.4846 14.1078 39.4848 14.1507 38.3203C14.1507 37.835 13.7572 37.4414 13.2718 37.4414Z" fill="white"/>
<path d="M17.6664 37.4414C17.1808 37.441 16.7871 37.8347 16.7871 38.3203C16.8304 39.4846 18.5023 39.4848 18.5453 38.3203C18.5453 37.835 18.1517 37.4414 17.6664 37.4414Z" fill="white"/>
<path d="M22.0609 37.4414C21.5753 37.441 21.1816 37.8347 21.1816 38.3203C21.2249 39.4846 22.8968 39.4848 22.9398 38.3203C22.9398 37.835 22.5462 37.4414 22.0609 37.4414Z" fill="white"/>
<path d="M26.4554 37.4414C25.9698 37.441 25.5762 37.8347 25.5762 38.3203C25.6194 39.4846 27.2914 39.4848 27.3343 38.3203C27.3343 37.835 26.9408 37.4414 26.4554 37.4414Z" fill="white"/>
<path d="M30.85 37.4414C30.3644 37.4411 29.9707 37.8347 29.9707 38.3203C30.0139 39.4846 31.6859 39.4848 31.7289 38.3203C31.7289 37.835 31.3353 37.4414 30.85 37.4414Z" fill="white"/>
<path d="M35.2445 37.4414C34.7589 37.441 34.3652 37.8347 34.3652 38.3203C34.4085 39.4846 36.0804 39.4848 36.1234 38.3203C36.1234 37.835 35.7298 37.4414 35.2445 37.4414Z" fill="white"/>
<path d="M39.639 37.4414C39.1534 37.441 38.7598 37.8347 38.7598 38.3203C38.803 39.4846 40.475 39.4848 40.5179 38.3203C40.5179 37.835 40.1244 37.4414 39.639 37.4414Z" fill="white"/>
<path d="M22.5002 20.7422C20.3873 20.7422 18.4009 21.5649 16.9068 23.059C16.5636 23.4022 16.5636 23.9587 16.9068 24.302C17.2501 24.6451 17.8065 24.6451 18.1499 24.302C20.4399 21.9152 24.5605 21.9153 26.8505 24.3021C27.0222 24.4736 27.2471 24.5595 27.472 24.5595C28.235 24.573 28.6505 23.5997 28.0935 23.0591C26.5995 21.5649 24.6131 20.7422 22.5002 20.7422Z" fill="white"/>
<path d="M22.5 24.2578C21.3262 24.2578 20.2225 24.7149 19.3927 25.5451C18.5988 26.3958 19.7841 27.5825 20.6357 26.7879C21.6169 25.765 23.3833 25.7651 24.3646 26.7879C25.214 27.582 26.4024 26.3966 25.6075 25.5451C24.7776 24.7149 23.6739 24.2578 22.5 24.2578Z" fill="white"/>
<path d="M22.4995 27.7734C22.0142 27.7734 21.6206 28.167 21.6206 28.6523C21.6637 29.817 23.3361 29.8168 23.3788 28.6523C23.3788 28.167 22.9849 27.7734 22.4995 27.7734Z" fill="white"/>
</svg>
