<svg width="45" height="45" viewBox="0 0 45 45" fill="none" xmlns="http://www.w3.org/2000/svg">
<path d="M19.0288 3.55983C20.1908 2.39774 21.7358 1.75781 23.3791 1.75781C25.0224 1.75781 26.5674 2.39774 27.7294 3.55983C27.9011 3.7314 28.126 3.81727 28.3509 3.81727C29.1139 3.8308 29.5294 2.8575 28.9724 2.31688C27.4784 0.822744 25.4921 0 23.3791 0C21.2661 0 19.2798 0.822744 17.7857 2.3168C17.4425 2.66001 17.4425 3.21653 17.7857 3.55983C18.1291 3.90296 18.6856 3.90296 19.0288 3.55983Z" fill="white"/>
<path d="M20.2716 4.80247C19.4778 5.65316 20.6629 6.83986 21.5146 6.04542C22.0125 5.54743 22.6747 5.27321 23.3791 5.27321C24.0833 5.27321 24.7455 5.54743 25.2436 6.04542C25.4151 6.21707 25.64 6.30285 25.865 6.30285C26.6288 6.31621 27.043 5.34273 26.4863 4.80247C24.8505 3.09774 21.9074 3.09774 20.2716 4.80247Z" fill="white"/>
<path d="M37.4026 19.2065C38.5444 16.5823 39.1992 14.0666 39.1992 12.3044C39.1992 11.8191 38.8056 11.4255 38.3203 11.4255H33.9258V10.5466C33.9258 9.09276 32.7429 7.90993 31.289 7.90993H24.2578C24.2144 6.74521 22.5426 6.74583 22.4997 7.90993H15.4687C14.0148 7.90993 12.832 9.09276 12.832 10.5466V11.4255H8.43749C6.98361 11.4255 5.80078 12.6084 5.80078 14.0623V24.6091C5.80078 26.063 6.98361 27.2458 8.43749 27.2458C9.89137 27.2458 11.0742 26.063 11.0742 24.6091V18.4569H12.832V36.3614C11.809 36.7241 11.0742 37.7016 11.0742 38.8474V44.1209C11.0742 44.6062 11.4677 44.9998 11.9531 44.9998H34.8046C35.2899 44.9998 35.6835 44.6062 35.6835 44.1209V38.8474C35.6835 37.7016 34.9487 36.7241 33.9257 36.3614V24.9612C35.0927 23.6858 36.3758 21.5667 37.4026 19.2065ZM37.3837 13.1833C37.1214 15.6692 35.4503 19.7323 33.9258 22.048V13.1833H37.3837ZM18.9844 36.2108V33.2224H19.8633C20.3487 33.2224 20.7422 32.8288 20.7422 32.3435C20.7422 31.8582 20.3487 31.4646 19.8633 31.4646H18.9844V28.4763H19.8633C20.3487 28.4763 20.7422 28.0828 20.7422 27.5974C20.7422 27.1121 20.3487 26.7185 19.8633 26.7185H18.9844V23.7303H19.8633C20.3487 23.7303 20.7422 23.3367 20.7422 22.8514C20.7422 22.366 20.3487 21.9725 19.8633 21.9725H18.9844V21.0936C18.9418 19.9299 17.2698 19.9284 17.2266 21.0936V36.2108H14.5899V18.3759C15.636 18.1835 15.901 17.5851 16.9629 17.578C17.5195 17.578 17.7861 17.7194 18.1553 17.915C18.6106 18.1564 19.1773 18.4569 20.1709 18.4569C21.1645 18.4569 21.7312 18.1564 22.1866 17.915C22.5557 17.7193 22.8224 17.578 23.3789 17.578C23.9354 17.578 24.2021 17.7193 24.5712 17.915C25.0265 18.1564 25.5932 18.4569 26.5869 18.4569C27.5805 18.4569 28.1472 18.1564 28.6026 17.915C28.9716 17.7193 29.2384 17.578 29.7949 17.578C30.8571 17.585 31.1221 18.1836 32.168 18.3759V36.2108H18.9844ZM32.168 16.5398C31.4349 16.1978 31.0247 15.8346 29.7949 15.8201C28.8012 15.8201 28.2345 16.1206 27.7792 16.362C27.4101 16.5577 27.1434 16.699 26.5869 16.699C26.0304 16.699 25.7637 16.5577 25.3946 16.362C24.9392 16.1206 24.3725 15.8201 23.3789 15.8201C22.3853 15.8201 21.8186 16.1206 21.3632 16.362C20.9941 16.5577 20.7275 16.699 20.1709 16.699C19.6144 16.699 19.3477 16.5577 18.9786 16.362C18.5232 16.1206 17.9565 15.8201 16.9629 15.8201C15.7324 15.8347 15.325 16.1975 14.5899 16.5398V13.1833H32.168V16.5398ZM14.5899 10.5466C14.5899 10.062 14.9842 9.66774 15.4688 9.66774H31.289C31.7737 9.66774 32.168 10.062 32.168 10.5466V11.4255H14.5899V10.5466ZM10.1954 16.699C9.70996 16.699 9.31648 17.0926 9.31648 17.578V24.6091C9.31648 25.0937 8.9222 25.488 8.43758 25.488C7.95295 25.488 7.55867 25.0937 7.55867 24.6091V14.0623C7.55867 13.5776 7.95295 13.1833 8.43758 13.1833H12.8321V16.699H10.1954ZM12.8321 38.8474C12.8321 38.3628 13.2264 37.9686 13.711 37.9686H33.0469C33.5315 37.9686 33.9258 38.3628 33.9258 38.8474V39.7264H23.3789C23.065 39.7264 22.7748 39.8939 22.6178 40.1658L20.8418 43.242H12.8321V38.8474ZM22.8715 43.242L23.8864 41.4842H33.9258V43.242H22.8715Z" fill="white"/>
</svg>
