<svg width="45" height="45" viewBox="0 0 45 45" fill="none" xmlns="http://www.w3.org/2000/svg">
<g clipPath="url(#clip0_8551_440)">
<path d="M42.3633 6.31109H31.1779C30.2788 -0.856286 20.4823 -2.37459 17.4694 4.22194C16.0221 4.38497 14.7616 5.17405 13.9659 6.31109H2.63671C1.18283 6.31109 0 7.49392 0 8.94781V35.315C0 36.7689 1.18283 37.9517 2.63671 37.9517H17.9653L16.5523 43.2254H15.4688C14.3083 43.2666 14.3008 44.9389 15.4688 44.9832H29.5312C30.6918 44.942 30.6992 43.2697 29.5312 43.2254H28.4478L27.0348 37.9517H42.3634C43.8173 37.9517 45.0001 36.7689 45.0001 35.315V8.94781C45 7.49392 43.8172 6.31109 42.3633 6.31109ZM43.2422 8.94781V32.6783H41.4843V10.7057C41.4843 10.2204 41.0908 9.8268 40.6054 9.8268H34.3759C34.243 9.1808 33.9662 8.58245 33.58 8.0689H42.3633C42.848 8.0689 43.2422 8.46318 43.2422 8.94781ZM13.9521 15.1002H17.2265V18.3653L15.1339 19.8422C13.2026 18.0431 9.97021 19.441 9.97917 22.1079C9.97917 23.804 11.3591 25.184 13.0553 25.184C15.0275 25.2118 16.5437 23.256 16.0383 21.3553L18.6122 19.5387C18.8456 19.374 18.9843 19.1062 18.9843 18.8206V15.1001H21.6211V24.0171C18.2723 25.0784 18.9459 29.9662 22.5 30.0415C26.0548 29.9659 26.7271 25.0778 23.3789 24.0171V15.1002H26.0156V18.8207C26.0156 19.1063 26.1544 19.3741 26.3877 19.5388L28.9616 21.3554C28.4566 23.2561 29.9722 25.2118 31.9446 25.184C33.6408 25.184 35.0207 23.8041 35.0207 22.1079C35.0294 19.4409 31.7974 18.0431 29.8661 19.8422L27.7734 18.3653V15.1002H30.0657C32.1889 15.1002 33.9655 13.5883 34.3756 11.5846H39.7265V32.6783H5.27343V11.5846H10.5367C10.4782 13.5019 12.0336 15.1035 13.9521 15.1002ZM14.3738 22.1079C14.3738 22.8348 13.7824 23.4262 13.0554 23.4262C11.3088 23.3599 11.3094 20.8556 13.0554 20.7896C13.7823 20.7896 14.3738 21.381 14.3738 22.1079ZM22.5 25.647C23.2269 25.647 23.8183 26.2384 23.8183 26.9653C23.752 28.7119 21.2476 28.7115 21.1816 26.9653C21.1817 26.2383 21.773 25.647 22.5 25.647ZM31.9447 20.7896C32.6716 20.7896 33.263 21.381 33.263 22.1079C33.1968 23.8544 30.6923 23.8539 30.6263 22.1079C30.6263 21.381 31.2177 20.7896 31.9447 20.7896ZM18.028 5.94846C18.4152 5.96806 18.7743 5.73066 18.9032 5.36381C21.0059 -0.333162 29.387 1.09506 29.4723 7.17673C29.4633 7.64 29.8181 8.0319 30.2799 8.0689C31.6408 8.17947 32.7068 9.33575 32.7068 10.7012C32.7068 12.1576 31.522 13.3424 30.0657 13.3424H13.9521C11.7577 13.2602 11.7514 10.1091 13.9521 10.0244C14.4375 10.0244 14.831 9.6308 14.831 9.14547C14.831 7.38257 16.2652 5.94846 18.028 5.94846ZM2.63671 8.0689H13.191C13.1692 8.16672 13.1503 8.2656 13.1344 8.36544C12.2802 8.57594 11.5514 9.10873 11.0848 9.8268H4.39461C3.90919 9.8268 3.51571 10.2204 3.51571 10.7057V32.6783H1.75781V8.94781C1.75781 8.46318 2.15209 8.0689 2.63671 8.0689ZM26.628 43.2254H18.3721L19.7851 37.9517H25.215L26.628 43.2254ZM42.3633 36.1939H2.63671C2.15209 36.1939 1.75781 35.7997 1.75781 35.315V34.4361H43.2422V35.315C43.2422 35.7996 42.848 36.1939 42.3633 36.1939Z" fill="white"/>
</g>
<defs>
<clipPath id="clip0_8551_440">
<rect width="45" height="45" fill="white"/>
</clipPath>
</defs>
</svg>
