<svg xmlns="http://www.w3.org/2000/svg" xmlns:xlink="http://www.w3.org/1999/xlink" version="1.1" viewBox="29.15 2.7 92.07 34.61">
  <!-- Generator: Adobe Illustrator 30.0.0, SVG Export Plug-In . SVG Version: 2.1.1 Build 123)  -->
  <defs>
    <style>
      .st0 {
        fill: none;
      }

      .st1 {
        fill: #2b53a0;
      }

      .st2 {
        fill: #28387e;
      }

      .st3 {
        fill: #b46bab;
      }

      .st4 {
        fill: #6e6f71;
      }

      .st5 {
        fill: url(#linear-gradient);
      }

      .st6 {
        fill: #884194;
      }

      .st7 {
        isolation: isolate;
      }

      .st8 {
        mix-blend-mode: multiply;
      }

      .st9 {
        clip-path: url(#clippath-1);
      }

      .st10 {
        fill: #21529f;
      }

      .st11 {
        clip-path: url(#clippath);
      }

      .st12 {
        fill: #aaaaac;
      }
    </style>
    <clipPath id="clippath">
      <path class="st0" d="M60.4,28.45c-.52.52-.14,1.41.59,1.4.97-.01,2.12,0,3.11,0,1.1,0,1.99-.9,1.98-2l-.03-4.98-5.65,5.58ZM80.25,8.39c-2.32,0-4.2,1.99-4.2,4.44v12.57c0,2.45,1.88,4.44,4.2,4.44h.1v7.45l8.57-7.45h4.22c2.2,0,3.97-1.88,3.97-4.21v-.31c0-1.69-1.72-2.96-3.41-1.94-.59.36-.93,1.05-.93,1.76v.07s-.04.02-.08.02h-5.18l-2.89,2.51v-2.51h-4.21v-12.25h11.63c.72,0,.7.1.7.67.07,1.04,1.22,1.78,2.61,1.49,1.03-.21,1.74-1.07,1.74-2.33v-.87c0-1.96-1.5-3.56-3.35-3.56h-13.47ZM70.62,8.42c-.46.08-.9.29-1.26.64l-16.77,16.77c-.94.94-.99,2.53,0,3.42.44.4.99.6,1.55.6.59,0,1.18-.23,1.63-.67l11.78-11.79,1.15-1.15v11.32c0,1.42,1.29,2.54,2.76,2.26,1.09-.21,1.84-1.23,1.84-2.34V10.8c0-1.2-.87-2.28-2.06-2.39-.08,0-.16-.01-.25-.01-.13,0-.25.01-.37.03M103.81,8.39c-2.22,0-4.03,1.8-4.03,4.03v4.9c0,1.68.91,3,2.44,3.53.92.32,1.9.31,2.93.32h11.05v4.07h-11.82c0-1.31-1.1-2.36-2.43-2.28-1.24.07-2.17,1.19-2.17,2.43v.98c0,1.92,1.56,3.48,3.48,3.48h14.19c1.85,0,3.36-1.5,3.36-3.35v-6.57c0-1.85-1.5-3.36-3.36-3.36h-12.3c-.23,0-.51,0-.77,0v-3.57h11.93c0,1.96,2.24,1.93,2.33,1.93,2.59,0,2.18-2.12,2.18-2.93,0-2.03-1.19-3.6-3.97-3.6h-13.04Z"/>
    </clipPath>
    <linearGradient id="linear-gradient" x1="-54.55" y1="88.74" x2="-52.77" y2="88.74" gradientTransform="translate(2155.85 3445.51) scale(38.57 -38.57)" gradientUnits="userSpaceOnUse">
      <stop offset="0" stop-color="#e43557"/>
      <stop offset=".15" stop-color="#e43a53"/>
      <stop offset=".35" stop-color="#e54b47"/>
      <stop offset=".57" stop-color="#e76635"/>
      <stop offset=".74" stop-color="#e98024"/>
      <stop offset="1" stop-color="#e98024"/>
    </linearGradient>
    <clipPath id="clippath-1">
      <rect class="st0" x="46.14" y="14.98" width="4.59" height="7.84"/>
    </clipPath>
  </defs>
  <g class="st7">
    <g id="Layer_1">
      <g>
        <path class="st2" d="M50.73,10.92c-.01.13-.04.27-.08.4-.1.37-.3.72-.59,1l-3.94,3.91-1.02,1.02h0s-12.01,11.93-12.01,11.93c-.45.45-1.04.67-1.63.67s-1.18-.23-1.63-.67c-.9-.9-.9-2.36,0-3.25l16.89-16.77.08-.08c.06-.06.12-.11.18-.16.19-.16.4-.28.62-.36.19-.08.39-.12.6-.14.08,0,.15-.01.23-.01.07,0,.15,0,.22.01h0s.08,0,.12.02c.08,0,.16.03.24.05.04,0,.08.02.12.03.11.03.22.08.32.13.12.06.23.13.34.21.06.04.12.09.17.14.03.02.06.05.09.08.02.02.03.03.03.04.02.01.03.03.04.04.46.5.66,1.14.6,1.77"/>
        <g class="st11">
          <rect class="st5" x="51.62" y="8.39" width="69.6" height="28.92"/>
        </g>
        <path class="st12" d="M50.73,14.98v5.56c0,.6-.23,1.14-.6,1.55-.02.02-.04.04-.06.06-.45.45-1.04.67-1.63.67s-1.18-.23-1.63-.67c-.9-.9-.9-2.36,0-3.26l3.91-3.91Z"/>
        <path class="st10" d="M50.73,10.7v4.28l-3.91,3.91c-.36.36-.58.82-.65,1.29-.11.7.11,1.43.65,1.97.45.45,1.04.67,1.63.67s1.18-.23,1.63-.67c-.41.43-1,.7-1.64.7-1.27,0-2.3-1.03-2.3-2.3v-9.85c0-.6.23-1.14.6-1.55l.08-.08c.06-.06.12-.11.18-.16.19-.16.4-.28.62-.36.04-.02.09-.04.14-.05.08-.02.16-.04.25-.06.07-.01.14-.02.21-.03.08,0,.15-.01.23-.01.07,0,.15,0,.22.01h0s.08,0,.12.02c.08.01.16.03.24.05.04,0,.08.02.12.03.11.03.22.08.32.13.02.01.04.02.06.04.07.03.14.07.19.12.03.02.06.04.09.06.06.04.12.09.17.14.03.03.05.05.08.08.01.01.03.03.04.04.02.01.03.03.04.04.02.03.04.06.07.08.05.05.09.12.13.18.08.12.15.25.22.4.11.27.18.57.18.89"/>
        <path class="st2" d="M50.93,5.2c0,1.38-1.12,2.5-2.5,2.5s-2.5-1.12-2.5-2.5,1.12-2.5,2.5-2.5,2.5,1.12,2.5,2.5"/>
        <path class="st6" d="M60.81,5.2c0,1.38-1.12,2.5-2.5,2.5s-2.5-1.12-2.5-2.5,1.12-2.5,2.5-2.5,2.5,1.12,2.5,2.5"/>
        <path class="st4" d="M85.15,19.17c0,.84-.68,1.52-1.52,1.52s-1.52-.68-1.52-1.52.68-1.52,1.52-1.52,1.52.68,1.52,1.52"/>
        <path class="st4" d="M93.48,19.17c0,.84-.68,1.52-1.52,1.52s-1.52-.68-1.52-1.52.68-1.52,1.52-1.52,1.52.68,1.52,1.52"/>
        <path class="st4" d="M89.22,19.17c0,.84-.68,1.52-1.52,1.52s-1.52-.68-1.52-1.52.68-1.52,1.52-1.52,1.52.68,1.52,1.52"/>
        <path class="st6" d="M59.9,12.32l-9.77,9.77c.37-.41.6-.95.6-1.55v-5.56l5.91-5.91c.9-.9,2.36-.9,3.26,0,.9.9.9,2.36,0,3.26"/>
        <g class="st8">
          <g class="st9">
            <path class="st1" d="M50.73,14.98v5.56c0,.6-.23,1.14-.6,1.55-.02.02-.04.04-.06.06-.45.45-1.04.67-1.63.67s-1.18-.23-1.63-.67c-.9-.9-.9-2.36,0-3.26l3.91-3.91Z"/>
          </g>
        </g>
        <path class="st3" d="M58.31,22.92c-1.27,0-2.3-1.03-2.3-2.3v-9.92c0-1.27,1.03-2.3,2.3-2.3s2.3,1.03,2.3,2.3v9.92c0,1.27-1.03,2.3-2.3,2.3"/>
      </g>
    </g>
  </g>
</svg>