<?xml version="1.0" encoding="UTF-8"?>
<svg id="Layer_1" data-name="Layer 1" xmlns="http://www.w3.org/2000/svg" viewBox="0 0 46 46">
  <defs>
    <style>
      .cls-1 {
        fill: #fffcfc;
      }

      .cls-2 {
        fill: #223b57;
      }

      .cls-3 {
        fill: #254064;
      }

      .cls-4 {
        fill: #ee8134;
      }
    </style>
  </defs>
  <g>
    <path class="cls-4" d="M30.89,24.61c-3.62.2-5.99,4.17-3.74,7.24,2,2.72,6.44,2.64,8.15-.32,1.91-3.27-.77-7.12-4.42-6.92ZM33.21,31.48c-2.19,1.78-5.69.12-5.23-2.79.19-1.17,1.45-2.24,2.61-2.4,3.1-.42,5.11,3.19,2.62,5.2ZM30.89,24.61c-3.62.2-5.99,4.17-3.74,7.24,2,2.72,6.44,2.64,8.15-.32,1.91-3.27-.77-7.12-4.42-6.92ZM33.21,31.48c-2.19,1.78-5.69.12-5.23-2.79.19-1.17,1.45-2.24,2.61-2.4,3.1-.42,5.11,3.19,2.62,5.2ZM30.89,24.61c-3.62.2-5.99,4.17-3.74,7.24,2,2.72,6.44,2.64,8.15-.32,1.91-3.27-.77-7.12-4.42-6.92ZM33.21,31.48c-2.19,1.78-5.69.12-5.23-2.79.19-1.17,1.45-2.24,2.61-2.4,3.1-.42,5.11,3.19,2.62,5.2ZM39.03,28.5c-.01-.29-.06-.56-.12-.83-.01-.12-.04-.22-.07-.32-.01-.12-.04-.22-.09-.3-.03-.14-.07-.28-.13-.42-.01-.07-.03-.13-.07-.19-.04-.17-.12-.33-.2-.51,0-.01,0-.03-.01-.03-.07-.19-.17-.38-.28-.56-.2-.38-.45-.74-.72-1.07-.13-.16-.28-.32-.42-.48-.1-.12-.2-.22-.32-.32-.1-.1-.2-.2-.32-.29-.58-.51-1.23-.93-1.94-1.23-.2-.09-.41-.16-.61-.23-.16-.06-.33-.12-.51-.16-.06-.03-.13-.04-.19-.04-.16-.04-.32-.09-.46-.12-.22-.04-.42-.07-.64-.09-.25-.03-.51-.04-.77-.04h-.04c-.45,0-.88.04-1.3.12-.2.03-.42.07-.62.13-.17.03-.35.09-.52.14-.14.04-.29.09-.43.16-.1.03-.19.06-.28.1-.23.1-.43.2-.64.32-.17.09-.33.17-.49.29-.16.1-.32.2-.46.32-.22.16-.43.32-.62.52-.13.12-.26.23-.38.36-.3.3-.58.64-.81,1-.12.17-.23.36-.35.55-.1.17-.2.38-.29.56-.1.2-.17.39-.25.59-.03.01-.03.03-.03.04-.07.2-.13.41-.19.61-.09.29-.14.59-.2.88-.03.14-.04.32-.06.48-.03.25-.04.49-.04.75v.03c0,.25.01.49.04.72.01.33.07.65.14.96.04.2.09.39.14.58.09.32.2.64.35.94.09.2.19.39.29.58.1.19.2.36.32.54.39.61.85,1.16,1.4,1.65.1.07.2.16.3.25.28.22.56.42.87.61.19.12.38.22.58.3.1.06.22.1.32.14.25.12.49.2.75.29,1.09.36,2.24.46,3.37.33.14-.01.29-.04.43-.07.38-.06.74-.14,1.1-.26.26-.09.54-.19.8-.32.26-.1.51-.23.75-.38h0c.3-.2.61-.39.88-.61.1-.09.2-.17.3-.25.3-.26.58-.54.83-.84.07-.07.14-.16.22-.25.12-.16.25-.32.35-.49.14-.2.28-.42.41-.65.14-.28.28-.55.39-.85.07-.19.14-.38.2-.56.09-.26.14-.51.2-.77.06-.28.1-.55.12-.84.03-.25.04-.49.04-.75v-.03c0-.25-.01-.48-.04-.71ZM31.12,35.55c-3.49,0-6.33-2.84-6.33-6.31s2.84-6.33,6.33-6.33,6.31,2.84,6.31,6.33-2.84,6.31-6.31,6.31ZM30.89,24.61c-3.62.2-5.99,4.17-3.74,7.24,2,2.72,6.44,2.64,8.15-.32,1.91-3.27-.77-7.12-4.42-6.92ZM33.21,31.48c-2.19,1.78-5.69.12-5.23-2.79.19-1.17,1.45-2.24,2.61-2.4,3.1-.42,5.11,3.19,2.62,5.2Z"/>
    <path class="cls-1" d="M33.58,36.79l-.06,3.86c-.65-.21-1.73-1.35-2.35-1.37-.75-.02-1.72,1.18-2.46,1.37l-.03-3.86c1.59.51,3.31.51,4.9,0Z"/>
    <path class="cls-4" d="M30.89,24.61c-3.62.2-5.99,4.17-3.74,7.24,2,2.72,6.44,2.64,8.15-.32,1.91-3.27-.77-7.12-4.42-6.92ZM33.21,31.48c-2.19,1.78-5.69.12-5.23-2.79.19-1.17,1.45-2.24,2.61-2.4,3.1-.42,5.11,3.19,2.62,5.2Z"/>
    <path class="cls-4" d="M35.09,42.6c-.33.48-.68.55-1.19.32-.48-.22-2.53-1.8-2.74-1.81-.77.23-2.58,1.98-3.24,1.97-.39-.01-.85-.41-.88-.8v-6.23c.17.12.36.22.56.3.1.06.22.1.32.14.25.12.49.2.75.29l.03,3.87c.75-.2,1.72-1.4,2.46-1.38.62.01,1.69,1.16,2.35,1.38l.07-3.87c.26-.09.54-.19.8-.32.25-.12.51-.25.75-.39h0c-.03,2.2.09,4.37-.04,6.52Z"/>
  </g>
  <g>
    <path class="cls-2" d="M35.99,11.9c-.03-.35-.14-.59-.39-.84l-8.02-7.96-.58-.17H9.87c-1.36.12-2.51,1.07-2.82,2.4-.14,10.67-.17,21.4.01,32.07.39,1.51,1.58,2.39,3.11,2.49,4.65.35,9.72-.26,14.41,0,1.07,0,1.3-1.3.29-1.67h-14.84c-.81-.1-1.33-.75-1.4-1.55V6.07c-.12-.43.64-1.48,1.03-1.48h16.64v5.49c0,1.06,1.58,2.55,2.61,2.55h5.42v7.46c0,.07.3.39.39.45.56.32,1.16,0,1.26-.62-.14-2.56.26-5.49.03-8.01ZM28.89,10.95s-.54-.29-.61-.38c-.12-.1-.42-.67-.42-.8v-4.05l5.24,5.23h-4.21Z"/>
    <path class="cls-3" d="M19.7,21.69c.35.32.24,1.17-.32,1.22h-8.89c-.73-.05-.8-1.09-.17-1.34,6.75-.14,2.06-.01,8.83-.06.17,0,.43.07.55.18Z"/>
    <path class="cls-3" d="M19.7,26.44c.35.32.24,1.17-.32,1.22h-8.89c-.73-.05-.8-1.09-.17-1.34,6.75-.14,2.06-.01,8.83-.06.17,0,.43.07.55.18Z"/>
    <path class="cls-3" d="M15.16,17.35l15.63-.02c.84.1.79,1.36-.08,1.4h-15.41c-.75-.09-.87-1.15-.14-1.38Z"/>
    <path class="cls-3" d="M10.28,12l10.47.02c.65.44.44,1.3-.35,1.35h-9.84c-.75-.09-.92-.99-.29-1.38Z"/>
  </g>
</svg>