<svg width="408" height="150" viewBox="0 0 408 150" fill="none" xmlns="http://www.w3.org/2000/svg">
<path d="M5.43737 126.539C3.19851 124.94 1.81256 123.021 1.2795 120.889C-1.70565 109.695 19.4036 93.2763 55.8651 75.8984" stroke="#4F70E6" stroke-width="0.791491" stroke-miterlimit="10"/>
<path d="M345.533 1.37701C380.929 -0.328787 403.957 3.72249 406.729 14.1705C412.486 36.1327 326.45 77.8181 214.507 107.243C141.37 126.54 75.2706 135.815 36.5703 133.79" stroke="#4F70E6" stroke-width="0.791491" stroke-miterlimit="10"/>
<path d="M21.1045 115.524C22.1682 122.53 27.3205 128.267 34.0771 130.272C27.3235 132.282 22.2466 138.036 21.1104 145.047C19.9768 137.949 14.8988 132.266 8.14551 130.271C14.8893 128.263 19.9601 122.522 21.1045 115.524Z" fill="#4F70E6" stroke="#4F70E6" stroke-width="1.06612"/>
</svg>
