<svg width="381" height="356" viewBox="0 0 381 356" fill="none" xmlns="http://www.w3.org/2000/svg">
<g opacity="0.5" clipPath="url(#clip0_8660_3)">
<mask id="mask0_8660_3" style="mask-type:luminance" maskUnits="userSpaceOnUse" x="0" y="0" width="527" height="456">
<path d="M131.502 455.54L394.506 455.541L526.012 227.77L394.506 -7.25317e-05L131.502 -9.55243e-05L-4.11228e-05 227.77L131.502 455.54Z" fill="white"/>
</mask>
<g mask="url(#mask0_8660_3)">
<path d="M7.17384 -27.6821C-1.39168 -27.6821 -8.33543 -20.7383 -8.33543 -12.1728C-8.33544 -3.6073 -1.39169 3.33642 7.17383 3.33642C15.7394 3.33643 22.6831 -3.6073 22.6831 -12.1728C22.6831 -20.7383 15.7394 -27.6821 7.17384 -27.6821Z" fill="#4F70E6"/>
<path d="M7.17384 -27.6821C-1.39168 -27.6821 -8.33543 -20.7383 -8.33543 -12.1728C-8.33544 -3.6073 -1.39169 3.33642 7.17383 3.33642C15.7394 3.33643 22.6831 -3.6073 22.6831 -12.1728C22.6831 -20.7383 15.7394 -27.6821 7.17384 -27.6821Z" fill="#4F70E6"/>
<path d="M74.2529 -27.6821C65.6874 -27.6821 58.7437 -20.7383 58.7437 -12.1728C58.7437 -3.6073 65.6874 3.33642 74.2529 3.33642C82.8185 3.33643 89.7622 -3.6073 89.7622 -12.1728C89.7622 -20.7383 82.8185 -27.6821 74.2529 -27.6821Z" fill="#4F70E6"/>
<path d="M74.2529 -27.6821C65.6874 -27.6821 58.7437 -20.7383 58.7437 -12.1728C58.7437 -3.6073 65.6874 3.33642 74.2529 3.33642C82.8185 3.33643 89.7622 -3.6073 89.7622 -12.1728C89.7622 -20.7383 82.8185 -27.6821 74.2529 -27.6821Z" fill="#4F70E6"/>
<path d="M141.331 -27.6821C132.766 -27.6821 125.822 -20.7383 125.822 -12.1728C125.822 -3.6073 132.766 3.33642 141.331 3.33642C149.897 3.33643 156.84 -3.6073 156.84 -12.1728C156.84 -20.7383 149.897 -27.6821 141.331 -27.6821Z" fill="#4F70E6"/>
<path d="M141.331 -27.6821C132.766 -27.6821 125.822 -20.7383 125.822 -12.1728C125.822 -3.6073 132.766 3.33642 141.331 3.33642C149.897 3.33643 156.84 -3.6073 156.84 -12.1728C156.84 -20.7383 149.897 -27.6821 141.331 -27.6821Z" fill="#4F70E6"/>
<path d="M208.41 -27.6821C199.844 -27.6821 192.9 -20.7383 192.9 -12.1728C192.9 -3.6073 199.844 3.33642 208.41 3.33642C216.975 3.33643 223.919 -3.6073 223.919 -12.1728C223.919 -20.7383 216.975 -27.6821 208.41 -27.6821Z" fill="#4F70E6"/>
<path d="M208.41 -27.6821C199.844 -27.6821 192.9 -20.7383 192.9 -12.1728C192.9 -3.6073 199.844 3.33642 208.41 3.33642C216.975 3.33643 223.919 -3.6073 223.919 -12.1728C223.919 -20.7383 216.975 -27.6821 208.41 -27.6821Z" fill="#4F70E6"/>
<path d="M275.488 -27.6821C266.922 -27.6821 259.979 -20.7383 259.979 -12.1728C259.979 -3.6073 266.922 3.33642 275.488 3.33642C284.053 3.33643 290.997 -3.6073 290.997 -12.1728C290.997 -20.7383 284.053 -27.6821 275.488 -27.6821Z" fill="#4F70E6"/>
<path d="M275.488 -27.6821C266.922 -27.6821 259.979 -20.7383 259.979 -12.1728C259.979 -3.6073 266.922 3.33642 275.488 3.33642C284.053 3.33643 290.997 -3.6073 290.997 -12.1728C290.997 -20.7383 284.053 -27.6821 275.488 -27.6821Z" fill="#4F70E6"/>
<path d="M342.566 -27.6821C334.001 -27.6821 327.057 -20.7383 327.057 -12.1728C327.057 -3.6073 334.001 3.33642 342.566 3.33642C351.132 3.33643 358.076 -3.6073 358.076 -12.1728C358.076 -20.7383 351.132 -27.6821 342.566 -27.6821Z" fill="#4F70E6"/>
<path d="M342.566 -27.6821C334.001 -27.6821 327.057 -20.7383 327.057 -12.1728C327.057 -3.6073 334.001 3.33642 342.566 3.33642C351.132 3.33643 358.076 -3.6073 358.076 -12.1728C358.076 -20.7383 351.132 -27.6821 342.566 -27.6821Z" fill="#4F70E6"/>
<path d="M7.17384 39.3965C-1.39168 39.3965 -8.33543 46.3403 -8.33543 54.9058C-8.33544 63.4713 -1.39169 70.415 7.17383 70.415C15.7394 70.415 22.6831 63.4713 22.6831 54.9058C22.6831 46.3403 15.7394 39.3966 7.17384 39.3965Z" fill="#4F70E6"/>
<path d="M7.17384 39.3965C-1.39168 39.3965 -8.33543 46.3403 -8.33543 54.9058C-8.33544 63.4713 -1.39169 70.415 7.17383 70.415C15.7394 70.415 22.6831 63.4713 22.6831 54.9058C22.6831 46.3403 15.7394 39.3966 7.17384 39.3965Z" fill="#4F70E6"/>
<path d="M74.2529 39.3965C65.6874 39.3965 58.7437 46.3403 58.7437 54.9058C58.7437 63.4713 65.6874 70.415 74.2529 70.415C82.8185 70.415 89.7622 63.4713 89.7622 54.9058C89.7622 46.3403 82.8185 39.3966 74.2529 39.3965Z" fill="#4F70E6"/>
<path d="M74.2529 39.3965C65.6874 39.3965 58.7437 46.3403 58.7437 54.9058C58.7437 63.4713 65.6874 70.415 74.2529 70.415C82.8185 70.415 89.7622 63.4713 89.7622 54.9058C89.7622 46.3403 82.8185 39.3966 74.2529 39.3965Z" fill="#4F70E6"/>
<path d="M141.332 39.3965C132.766 39.3965 125.822 46.3403 125.822 54.9058C125.822 63.4713 132.766 70.415 141.332 70.415C149.897 70.415 156.841 63.4713 156.841 54.9058C156.841 46.3403 149.897 39.3966 141.332 39.3965Z" fill="#4F70E6"/>
<path d="M141.332 39.3965C132.766 39.3965 125.822 46.3403 125.822 54.9058C125.822 63.4713 132.766 70.415 141.332 70.415C149.897 70.415 156.841 63.4713 156.841 54.9058C156.841 46.3403 149.897 39.3966 141.332 39.3965Z" fill="#4F70E6"/>
<path d="M208.41 39.3965C199.844 39.3965 192.9 46.3403 192.9 54.9058C192.9 63.4713 199.844 70.415 208.41 70.415C216.975 70.415 223.919 63.4713 223.919 54.9058C223.919 46.3403 216.975 39.3966 208.41 39.3965Z" fill="#4F70E6"/>
<path d="M208.41 39.3965C199.844 39.3965 192.9 46.3403 192.9 54.9058C192.9 63.4713 199.844 70.415 208.41 70.415C216.975 70.415 223.919 63.4713 223.919 54.9058C223.919 46.3403 216.975 39.3966 208.41 39.3965Z" fill="#4F70E6"/>
<path d="M275.488 39.3965C266.922 39.3965 259.979 46.3403 259.979 54.9058C259.979 63.4713 266.922 70.415 275.488 70.415C284.053 70.415 290.997 63.4713 290.997 54.9058C290.997 46.3403 284.053 39.3966 275.488 39.3965Z" fill="#4F70E6"/>
<path d="M275.488 39.3965C266.922 39.3965 259.979 46.3403 259.979 54.9058C259.979 63.4713 266.922 70.415 275.488 70.415C284.053 70.415 290.997 63.4713 290.997 54.9058C290.997 46.3403 284.053 39.3966 275.488 39.3965Z" fill="#4F70E6"/>
<path d="M342.566 39.3965C334.001 39.3965 327.057 46.3403 327.057 54.9058C327.057 63.4713 334.001 70.415 342.566 70.415C351.132 70.415 358.076 63.4713 358.076 54.9058C358.076 46.3403 351.132 39.3966 342.566 39.3965Z" fill="#4F70E6"/>
<path d="M342.566 39.3965C334.001 39.3965 327.057 46.3403 327.057 54.9058C327.057 63.4713 334.001 70.415 342.566 70.415C351.132 70.415 358.076 63.4713 358.076 54.9058C358.076 46.3403 351.132 39.3966 342.566 39.3965Z" fill="#4F70E6"/>
<path d="M7.17384 106.475C-1.39168 106.475 -8.33543 113.419 -8.33543 121.984C-8.33544 130.55 -1.39169 137.494 7.17383 137.494C15.7394 137.494 22.6831 130.55 22.6831 121.984C22.6831 113.419 15.7394 106.475 7.17384 106.475Z" fill="#4F70E6"/>
<path d="M7.17384 106.475C-1.39168 106.475 -8.33543 113.419 -8.33543 121.984C-8.33544 130.55 -1.39169 137.494 7.17383 137.494C15.7394 137.494 22.6831 130.55 22.6831 121.984C22.6831 113.419 15.7394 106.475 7.17384 106.475Z" fill="#4F70E6"/>
<path d="M74.2529 106.475C65.6874 106.475 58.7437 113.419 58.7437 121.984C58.7437 130.55 65.6874 137.494 74.2529 137.494C82.8185 137.494 89.7622 130.55 89.7622 121.984C89.7622 113.419 82.8185 106.475 74.2529 106.475Z" fill="#4F70E6"/>
<path d="M74.2529 106.475C65.6874 106.475 58.7437 113.419 58.7437 121.984C58.7437 130.55 65.6874 137.494 74.2529 137.494C82.8185 137.494 89.7622 130.55 89.7622 121.984C89.7622 113.419 82.8185 106.475 74.2529 106.475Z" fill="#4F70E6"/>
<path d="M141.331 106.475C132.766 106.475 125.822 113.419 125.822 121.984C125.822 130.55 132.766 137.494 141.331 137.494C149.897 137.494 156.84 130.55 156.84 121.984C156.84 113.419 149.897 106.475 141.331 106.475Z" fill="#4F70E6"/>
<path d="M141.331 106.475C132.766 106.475 125.822 113.419 125.822 121.984C125.822 130.55 132.766 137.494 141.331 137.494C149.897 137.494 156.84 130.55 156.84 121.984C156.84 113.419 149.897 106.475 141.331 106.475Z" fill="#4F70E6"/>
<path d="M208.41 106.475C199.844 106.475 192.9 113.419 192.9 121.984C192.9 130.55 199.844 137.494 208.41 137.494C216.975 137.494 223.919 130.55 223.919 121.984C223.919 113.419 216.975 106.475 208.41 106.475Z" fill="#4F70E6"/>
<path d="M208.41 106.475C199.844 106.475 192.9 113.419 192.9 121.984C192.9 130.55 199.844 137.494 208.41 137.494C216.975 137.494 223.919 130.55 223.919 121.984C223.919 113.419 216.975 106.475 208.41 106.475Z" fill="#4F70E6"/>
<path d="M275.488 106.475C266.922 106.475 259.979 113.419 259.979 121.984C259.979 130.55 266.922 137.494 275.488 137.494C284.053 137.494 290.997 130.55 290.997 121.984C290.997 113.419 284.053 106.475 275.488 106.475Z" fill="#4F70E6"/>
<path d="M275.488 106.475C266.922 106.475 259.979 113.419 259.979 121.984C259.979 130.55 266.922 137.494 275.488 137.494C284.053 137.494 290.997 130.55 290.997 121.984C290.997 113.419 284.053 106.475 275.488 106.475Z" fill="#4F70E6"/>
<path d="M342.566 106.475C334.001 106.475 327.057 113.419 327.057 121.984C327.057 130.55 334.001 137.494 342.566 137.494C351.132 137.494 358.076 130.55 358.076 121.984C358.076 113.419 351.132 106.475 342.566 106.475Z" fill="#4F70E6"/>
<path d="M342.566 106.475C334.001 106.475 327.057 113.419 327.057 121.984C327.057 130.55 334.001 137.494 342.566 137.494C351.132 137.494 358.076 130.55 358.076 121.984C358.076 113.419 351.132 106.475 342.566 106.475Z" fill="#4F70E6"/>
<path d="M7.17384 173.554C-1.39168 173.554 -8.33543 180.497 -8.33543 189.063C-8.33544 197.629 -1.39169 204.572 7.17383 204.572C15.7394 204.572 22.6831 197.629 22.6831 189.063C22.6831 180.497 15.7394 173.554 7.17384 173.554Z" fill="#4F70E6"/>
<path d="M7.17384 173.554C-1.39168 173.554 -8.33543 180.497 -8.33543 189.063C-8.33544 197.629 -1.39169 204.572 7.17383 204.572C15.7394 204.572 22.6831 197.629 22.6831 189.063C22.6831 180.497 15.7394 173.554 7.17384 173.554Z" fill="#4F70E6"/>
<path d="M74.2529 173.554C65.6874 173.554 58.7437 180.497 58.7437 189.063C58.7437 197.629 65.6874 204.572 74.2529 204.572C82.8185 204.572 89.7622 197.629 89.7622 189.063C89.7622 180.497 82.8185 173.554 74.2529 173.554Z" fill="#4F70E6"/>
<path d="M74.2529 173.554C65.6874 173.554 58.7437 180.497 58.7437 189.063C58.7437 197.629 65.6874 204.572 74.2529 204.572C82.8185 204.572 89.7622 197.629 89.7622 189.063C89.7622 180.497 82.8185 173.554 74.2529 173.554Z" fill="#4F70E6"/>
<path d="M141.331 173.553C132.766 173.553 125.822 180.497 125.822 189.063C125.822 197.628 132.766 204.572 141.331 204.572C149.897 204.572 156.84 197.628 156.84 189.063C156.84 180.497 149.897 173.553 141.331 173.553Z" fill="#4F70E6"/>
<path d="M141.331 173.553C132.766 173.553 125.822 180.497 125.822 189.063C125.822 197.628 132.766 204.572 141.331 204.572C149.897 204.572 156.84 197.628 156.84 189.063C156.84 180.497 149.897 173.553 141.331 173.553Z" fill="#4F70E6"/>
<path d="M208.41 173.554C199.844 173.554 192.9 180.497 192.9 189.063C192.9 197.629 199.844 204.572 208.41 204.572C216.975 204.572 223.919 197.629 223.919 189.063C223.919 180.497 216.975 173.554 208.41 173.554Z" fill="#4F70E6"/>
<path d="M208.41 173.554C199.844 173.554 192.9 180.497 192.9 189.063C192.9 197.629 199.844 204.572 208.41 204.572C216.975 204.572 223.919 197.629 223.919 189.063C223.919 180.497 216.975 173.554 208.41 173.554Z" fill="#4F70E6"/>
<path d="M275.488 173.554C266.922 173.554 259.979 180.497 259.979 189.063C259.979 197.629 266.922 204.572 275.488 204.572C284.053 204.572 290.997 197.629 290.997 189.063C290.997 180.497 284.053 173.554 275.488 173.554Z" fill="#4F70E6"/>
<path d="M275.488 173.554C266.922 173.554 259.979 180.497 259.979 189.063C259.979 197.629 266.922 204.572 275.488 204.572C284.053 204.572 290.997 197.629 290.997 189.063C290.997 180.497 284.053 173.554 275.488 173.554Z" fill="#4F70E6"/>
<path d="M342.566 173.554C334.001 173.554 327.057 180.497 327.057 189.063C327.057 197.629 334.001 204.572 342.566 204.572C351.132 204.572 358.076 197.629 358.076 189.063C358.076 180.497 351.132 173.554 342.566 173.554Z" fill="#4F70E6"/>
<path d="M342.566 173.554C334.001 173.554 327.057 180.497 327.057 189.063C327.057 197.629 334.001 204.572 342.566 204.572C351.132 204.572 358.076 197.629 358.076 189.063C358.076 180.497 351.132 173.554 342.566 173.554Z" fill="#4F70E6"/>
<path d="M7.17384 240.632C-1.39168 240.632 -8.33543 247.576 -8.33543 256.141C-8.33544 264.707 -1.39169 271.65 7.17383 271.65C15.7394 271.65 22.6831 264.707 22.6831 256.141C22.6831 247.576 15.7394 240.632 7.17384 240.632Z" fill="#4F70E6"/>
<path d="M7.17384 240.632C-1.39168 240.632 -8.33543 247.576 -8.33543 256.141C-8.33544 264.707 -1.39169 271.65 7.17383 271.65C15.7394 271.65 22.6831 264.707 22.6831 256.141C22.6831 247.576 15.7394 240.632 7.17384 240.632Z" fill="#4F70E6"/>
<path d="M74.2529 240.632C65.6874 240.632 58.7437 247.576 58.7437 256.141C58.7437 264.707 65.6874 271.65 74.2529 271.65C82.8185 271.65 89.7622 264.707 89.7622 256.141C89.7622 247.576 82.8185 240.632 74.2529 240.632Z" fill="#4F70E6"/>
<path d="M74.2529 240.632C65.6874 240.632 58.7437 247.576 58.7437 256.141C58.7437 264.707 65.6874 271.65 74.2529 271.65C82.8185 271.65 89.7622 264.707 89.7622 256.141C89.7622 247.576 82.8185 240.632 74.2529 240.632Z" fill="#4F70E6"/>
<path d="M141.331 240.632C132.766 240.632 125.822 247.576 125.822 256.141C125.822 264.707 132.766 271.65 141.331 271.65C149.897 271.65 156.84 264.707 156.84 256.141C156.84 247.576 149.897 240.632 141.331 240.632Z" fill="#4F70E6"/>
<path d="M141.331 240.632C132.766 240.632 125.822 247.576 125.822 256.141C125.822 264.707 132.766 271.65 141.331 271.65C149.897 271.65 156.84 264.707 156.84 256.141C156.84 247.576 149.897 240.632 141.331 240.632Z" fill="#4F70E6"/>
<path d="M208.41 240.632C199.844 240.632 192.9 247.576 192.9 256.141C192.9 264.707 199.844 271.65 208.41 271.65C216.975 271.65 223.919 264.707 223.919 256.141C223.919 247.576 216.975 240.632 208.41 240.632Z" fill="#4F70E6"/>
<path d="M208.41 240.632C199.844 240.632 192.9 247.576 192.9 256.141C192.9 264.707 199.844 271.65 208.41 271.65C216.975 271.65 223.919 264.707 223.919 256.141C223.919 247.576 216.975 240.632 208.41 240.632Z" fill="#4F70E6"/>
<path d="M275.488 240.632C266.922 240.632 259.979 247.576 259.979 256.141C259.979 264.707 266.922 271.65 275.488 271.65C284.053 271.65 290.997 264.707 290.997 256.141C290.997 247.576 284.053 240.632 275.488 240.632Z" fill="#4F70E6"/>
<path d="M275.488 240.632C266.922 240.632 259.979 247.576 259.979 256.141C259.979 264.707 266.922 271.65 275.488 271.65C284.053 271.65 290.997 264.707 290.997 256.141C290.997 247.576 284.053 240.632 275.488 240.632Z" fill="#4F70E6"/>
<path d="M342.566 240.632C334.001 240.632 327.057 247.576 327.057 256.141C327.057 264.707 334.001 271.65 342.566 271.65C351.132 271.65 358.076 264.707 358.076 256.141C358.076 247.576 351.132 240.632 342.566 240.632Z" fill="#4F70E6"/>
<path d="M342.566 240.632C334.001 240.632 327.057 247.576 327.057 256.141C327.057 264.707 334.001 271.65 342.566 271.65C351.132 271.65 358.076 264.707 358.076 256.141C358.076 247.576 351.132 240.632 342.566 240.632Z" fill="#4F70E6"/>
<path d="M7.17384 307.71C-1.39168 307.71 -8.33543 314.654 -8.33543 323.22C-8.33544 331.785 -1.39169 338.729 7.17383 338.729C15.7394 338.729 22.6831 331.785 22.6831 323.22C22.6831 314.654 15.7394 307.711 7.17384 307.71Z" fill="#4F70E6"/>
<path d="M7.17384 307.71C-1.39168 307.71 -8.33543 314.654 -8.33543 323.22C-8.33544 331.785 -1.39169 338.729 7.17383 338.729C15.7394 338.729 22.6831 331.785 22.6831 323.22C22.6831 314.654 15.7394 307.711 7.17384 307.71Z" fill="#4F70E6"/>
<path d="M74.2529 307.71C65.6874 307.71 58.7437 314.654 58.7437 323.22C58.7437 331.785 65.6874 338.729 74.2529 338.729C82.8185 338.729 89.7622 331.785 89.7622 323.22C89.7622 314.654 82.8185 307.711 74.2529 307.71Z" fill="#4F70E6"/>
<path d="M74.2529 307.71C65.6874 307.71 58.7437 314.654 58.7437 323.22C58.7437 331.785 65.6874 338.729 74.2529 338.729C82.8185 338.729 89.7622 331.785 89.7622 323.22C89.7622 314.654 82.8185 307.711 74.2529 307.71Z" fill="#4F70E6"/>
<path d="M141.331 307.71C132.766 307.71 125.822 314.654 125.822 323.219C125.822 331.785 132.766 338.729 141.331 338.729C149.897 338.729 156.84 331.785 156.84 323.219C156.84 314.654 149.897 307.71 141.331 307.71Z" fill="#4F70E6"/>
<path d="M141.331 307.71C132.766 307.71 125.822 314.654 125.822 323.219C125.822 331.785 132.766 338.729 141.331 338.729C149.897 338.729 156.84 331.785 156.84 323.219C156.84 314.654 149.897 307.71 141.331 307.71Z" fill="#4F70E6"/>
<path d="M208.41 307.71C199.844 307.71 192.9 314.654 192.9 323.22C192.9 331.785 199.844 338.729 208.41 338.729C216.975 338.729 223.919 331.785 223.919 323.22C223.919 314.654 216.975 307.711 208.41 307.71Z" fill="#4F70E6"/>
<path d="M208.41 307.71C199.844 307.71 192.9 314.654 192.9 323.22C192.9 331.785 199.844 338.729 208.41 338.729C216.975 338.729 223.919 331.785 223.919 323.22C223.919 314.654 216.975 307.711 208.41 307.71Z" fill="#4F70E6"/>
<path d="M275.488 307.71C266.922 307.71 259.979 314.654 259.979 323.22C259.979 331.785 266.922 338.729 275.488 338.729C284.053 338.729 290.997 331.785 290.997 323.22C290.997 314.654 284.053 307.711 275.488 307.71Z" fill="#4F70E6"/>
<path d="M275.488 307.71C266.922 307.71 259.979 314.654 259.979 323.22C259.979 331.785 266.922 338.729 275.488 338.729C284.053 338.729 290.997 331.785 290.997 323.22C290.997 314.654 284.053 307.711 275.488 307.71Z" fill="#4F70E6"/>
<path d="M342.566 307.71C334.001 307.71 327.057 314.654 327.057 323.22C327.057 331.785 334.001 338.729 342.566 338.729C351.132 338.729 358.076 331.785 358.076 323.22C358.076 314.654 351.132 307.711 342.566 307.71Z" fill="#4F70E6"/>
<path d="M342.566 307.71C334.001 307.71 327.057 314.654 327.057 323.22C327.057 331.785 334.001 338.729 342.566 338.729C351.132 338.729 358.076 331.785 358.076 323.22C358.076 314.654 351.132 307.711 342.566 307.71Z" fill="#4F70E6"/>
</g>
</g>
<defs>
<clipPath id="clip0_8660_3">
<rect width="381" height="356" fill="white" transform="translate(381 356) rotate(-180)"/>
</clipPath>
</defs>
</svg>
