<svg width="45" height="45" viewBox="0 0 45 45" fill="none" xmlns="http://www.w3.org/2000/svg">
<path d="M44.7361 31.3793C43.693 26.9503 42.5538 22.0795 41.52 17.6784C40.7145 14.2466 37.5143 11.7863 33.8818 11.7863C33.8424 11.7863 33.8023 11.7865 33.7627 11.7871H23.3813C23.3378 10.6221 21.6654 10.6227 21.6226 11.7871H11.241C7.57262 11.7291 4.29469 14.2081 3.48366 17.6786C2.45188 22.0669 1.30652 26.9648 0.267707 31.3792C-2.00702 41.4191 10.8652 44.7352 14.2991 36.3551C16.6868 36.8816 19.118 35.2246 19.5542 32.8868H25.4497C25.8858 35.2245 28.3174 36.8816 30.7048 36.3551C34.181 44.7496 46.988 41.4218 44.7361 31.3793ZM28.9227 13.5455V19.6857C28.9227 20.1704 28.5283 20.5648 28.0435 20.5648H16.9602C16.4754 20.5648 16.081 20.1704 16.081 19.6857V13.5455H28.9227ZM15.2019 34.6893C13.7234 34.6893 12.5204 33.4864 12.5204 32.0078C12.6553 28.4554 17.749 28.4564 17.8833 32.0078C17.8833 33.4863 16.6804 34.6893 15.2019 34.6893ZM27.1204 32.0078C27.1204 30.5293 28.3234 29.3264 29.8018 29.3264C33.3543 29.4613 33.3533 34.555 29.8018 34.6893C28.3233 34.6893 27.1204 33.4863 27.1204 32.0078ZM39.175 39.1654C36.296 39.9926 33.4678 38.4706 32.3209 35.6619C35.8626 33.2258 34.1581 27.5839 29.8017 27.5681C27.6546 27.5681 25.8586 29.1002 25.4495 31.1287H19.5541C19.1451 29.1003 17.349 27.5681 15.2019 27.5681C10.8445 27.5839 9.14192 33.2277 12.6827 35.6619C11.5363 38.4711 8.70717 39.9923 5.82864 39.1653C3.22326 38.4269 1.02246 35.8573 1.97934 31.7811L3.06905 27.1404C3.77836 24.1203 4.48766 21.1002 5.19547 18.0801C5.82292 15.4076 8.35534 13.5011 11.2205 13.5454C11.2335 13.5447 14.3087 13.546 14.3227 13.5455V19.6856C14.3227 21.1399 15.5059 22.323 16.9602 22.323H28.0434C29.4977 22.323 30.6809 21.1399 30.6809 19.6856V13.5455C30.6948 13.5454 33.7703 13.5456 33.783 13.5454C36.6466 13.4995 39.1809 15.4075 39.8081 18.0799C40.516 21.1002 41.2253 24.1204 41.9346 27.1405L43.0244 31.7812C43.9811 35.8573 41.7804 38.427 39.175 39.1654Z" fill="#4F70E6"/>
<path d="M12.6923 23.2024H10.9339V21.4441C10.9339 20.9585 10.5402 20.5649 10.0547 20.5649C9.56924 20.5649 9.17556 20.9585 9.17556 21.4441V23.2024H7.41724C6.93177 23.2024 6.53809 23.596 6.53809 24.0816C6.53809 24.5671 6.93177 24.9607 7.41724 24.9607H9.17556V26.719C9.17556 27.2046 9.56924 27.5982 10.0547 27.5982C10.5402 27.5982 10.9339 27.2046 10.9339 26.719V24.9607H12.6923C13.8572 24.9176 13.8569 23.2453 12.6923 23.2024Z" fill="#4F70E6"/>
<path d="M18.1503 7.43576C19.3126 6.27343 20.8581 5.63331 22.5019 5.63331C24.1456 5.63331 25.6911 6.27343 26.8534 7.43576C27.0251 7.60746 27.2501 7.69327 27.4751 7.69327C28.2383 7.70681 28.6539 6.73323 28.0967 6.19246C26.6022 4.69807 24.6153 3.875 22.5019 3.875C20.3884 3.875 18.4014 4.69798 16.9069 6.19246C16.5636 6.53577 16.5636 7.09245 16.9069 7.43585C17.2504 7.77907 17.8069 7.77907 18.1503 7.43576Z" fill="#4F70E6"/>
<path d="M19.3937 8.67885C18.5997 9.52987 19.7851 10.7167 20.6371 9.92215C21.1352 9.42402 21.7975 9.14963 22.5021 9.14963C23.2066 9.14963 23.8689 9.42402 24.367 9.92215C24.5387 10.0938 24.7637 10.1797 24.9887 10.1797C25.7528 10.193 26.1669 9.21944 25.6103 8.67885C23.9741 6.97363 21.0298 6.97354 19.3937 8.67885Z" fill="#4F70E6"/>
<path d="M37.5858 23.2019H35.8274V21.4436C35.8274 20.9581 35.4337 20.5645 34.9483 20.5645C34.4628 20.5645 34.0691 20.9581 34.0691 21.4436V23.2019H32.3108C31.8253 23.2019 31.4316 23.5955 31.4316 24.0811C31.4316 24.5666 31.8253 24.9602 32.3108 24.9602H34.0691V26.7186C34.0691 27.2041 34.4628 27.5977 34.9483 27.5977C35.4337 27.5977 35.8274 27.2041 35.8274 26.7186V24.9602H37.5858C38.7507 24.9172 38.7504 23.2448 37.5858 23.2019Z" fill="#4F70E6"/>
</svg>
