<svg width="65" height="65" viewBox="0 0 65 65" fill="none" xmlns="http://www.w3.org/2000/svg">
<path d="M54.02 40.9904H54.0167C55.5274 39.3053 56.3168 36.8035 56.3168 34.3875C56.3168 32.5973 55.6056 30.8803 54.3397 29.6144C53.0738 28.3485 51.3569 27.6373 49.5666 27.6373C47.7763 27.6373 46.0594 28.3485 44.7935 29.6144C43.5275 30.8803 42.8164 32.5973 42.8164 34.3875C42.8164 36.3191 43.3793 38.3866 44.3222 39.917C44.5549 40.2968 44.8199 40.6559 45.1141 40.9904H45.1095C43.5384 40.9871 42.0065 41.4809 40.7332 42.4012C40.16 42.3061 39.5799 42.2579 38.9989 42.2572H37.8656C38.5672 41.6254 39.1775 40.8991 39.6788 40.099C41.0791 37.8992 41.8822 35.0057 41.8822 32.1604C41.8868 30.9256 41.6475 29.702 41.1781 28.5599C40.7087 27.4178 40.0184 26.3795 39.1469 25.5048C38.2753 24.63 37.2397 23.9359 36.0993 23.4623C34.9589 22.9887 33.7362 22.7449 32.5014 22.7449C31.2665 22.7449 30.0439 22.9887 28.9035 23.4623C27.7631 23.9359 26.7274 24.63 25.8558 25.5048C24.9843 26.3795 24.294 27.4178 23.8246 28.5599C23.3552 29.702 23.1159 30.9256 23.1205 32.1604C23.1205 34.8947 23.9157 37.8183 25.2478 39.9807C25.76 40.827 26.393 41.594 27.1267 42.2575H26.0008C25.4197 42.2582 24.8397 42.3063 24.2665 42.4015C22.9931 41.4812 21.4613 40.9873 19.8902 40.9906H19.8856C20.1798 40.6562 20.4447 40.297 20.6775 39.9172C21.6204 38.3866 22.1833 36.3194 22.1833 34.3878C22.1833 32.598 21.4723 30.8815 20.2067 29.6159C18.9412 28.3503 17.2247 27.6393 15.4349 27.6393C13.6451 27.6393 11.9286 28.3503 10.663 29.6159C9.39741 30.8815 8.68642 32.598 8.68642 34.3878C8.68642 36.8037 9.47607 39.3056 10.9854 40.9906H10.9797C7.03031 40.9906 3.81738 44.0068 3.81738 47.7139V55.5089C3.81738 55.7782 3.92439 56.0365 4.11485 56.227C4.30532 56.4175 4.56365 56.5245 4.83301 56.5245H16.0176V62.9688C16.0176 63.2381 16.1246 63.4964 16.315 63.6869C16.5055 63.8774 16.7638 63.9844 17.0332 63.9844H47.9679C48.2372 63.9844 48.4956 63.8774 48.686 63.6869C48.8765 63.4964 48.9835 63.2381 48.9835 62.9688V56.5242H60.1702C60.4396 56.5242 60.6979 56.4172 60.8884 56.2268C61.0788 56.0363 61.1858 55.778 61.1858 55.5086V47.7137C61.1858 44.0065 57.9713 40.9904 54.02 40.9904ZM44.8476 34.3875C44.8476 33.136 45.3448 31.9357 46.2298 31.0507C47.1148 30.1657 48.315 29.6686 49.5666 29.6686C50.8181 29.6686 52.0184 30.1657 52.9034 31.0507C53.7884 31.9357 54.2856 33.136 54.2856 34.3875C54.2856 36.9404 53.0033 40.9904 49.5647 40.9904C46.1283 40.9904 44.8476 36.9404 44.8476 34.3875ZM32.4995 24.8084C34.4486 24.8106 36.3172 25.5859 37.6953 26.9641C39.0735 28.3423 39.8488 30.2108 39.851 32.1599C39.851 32.2128 39.8488 32.2659 39.8481 32.3188C37.0179 31.9961 34.5752 31.3667 31.2763 28.7803C31.114 28.653 30.9167 28.5782 30.7109 28.5658C30.505 28.5534 30.3002 28.604 30.1237 28.7108L25.1666 31.7129C25.2819 29.8454 26.1043 28.092 27.4665 26.8094C28.8288 25.5267 30.6285 24.8112 32.4995 24.8084ZM26.9771 38.9152C26.1291 37.5385 25.5354 35.7933 25.2849 34.0148L30.5837 30.8067C34.0275 33.3621 36.7231 34.011 39.6682 34.3426C39.3879 36.0532 38.7945 37.7044 37.9651 39.0076C37.0215 40.4901 35.3072 42.2576 32.4993 42.2576C30.2017 42.2572 28.3433 41.1328 26.9771 38.9152ZM10.717 34.3875C10.717 33.7681 10.839 33.1547 11.0761 32.5823C11.3132 32.01 11.6606 31.49 12.0987 31.052C12.5367 30.6139 13.0567 30.2665 13.629 30.0294C14.2014 29.7924 14.8148 29.6703 15.4342 29.6703C16.0537 29.6703 16.6671 29.7924 17.2394 30.0294C17.8117 30.2665 18.3318 30.6139 18.7698 31.052C19.2078 31.49 19.5553 32.01 19.7923 32.5823C20.0294 33.1547 20.1514 33.7681 20.1514 34.3875C20.1514 36.9404 18.8707 40.9904 15.4342 40.9904C11.9977 40.9904 10.717 36.9404 10.717 34.3875ZM5.848 54.493V47.7137C5.848 45.1265 8.14979 43.0216 10.9791 43.0216H19.8895C20.4366 43.0215 20.9806 43.1028 21.5037 43.2628C18.252 44.8051 16.0166 47.9621 16.0166 51.6007V54.4934L5.848 54.493ZM46.9512 61.9531H41.803V55.6921C41.803 55.4227 41.696 55.1644 41.5056 54.9739C41.3151 54.7834 41.0568 54.6764 40.7874 54.6764C40.518 54.6764 40.2597 54.7834 40.0692 54.9739C39.8788 55.1644 39.7718 55.4227 39.7718 55.6921V61.9531H25.2308V55.6921C25.2308 55.4227 25.1238 55.1644 24.9334 54.9739C24.7429 54.7834 24.4846 54.6764 24.2152 54.6764C23.9458 54.6764 23.6875 54.7834 23.497 54.9739C23.3066 55.1644 23.1996 55.4227 23.1996 55.6921V61.9531H18.0478V51.6003C18.0478 47.5686 21.6152 44.2885 26.0002 44.2885H38.9995C43.3845 44.2885 46.9519 47.5686 46.9519 51.6003L46.9512 61.9531ZM59.1546 54.493H48.9825V51.6003C48.9825 47.9617 46.7471 44.8047 43.4953 43.2625C44.0184 43.1025 44.5625 43.0212 45.1095 43.0212H54.02C56.851 43.0212 59.1546 45.1261 59.1546 47.7133V54.493ZM26.8561 13.1089L26.0638 18.606C26.0374 18.789 26.0615 18.9758 26.1335 19.1461C26.2054 19.3164 26.3225 19.4639 26.4721 19.5726C26.6218 19.6812 26.7982 19.747 26.9824 19.7628C27.1667 19.7785 27.3517 19.7437 27.5176 19.662L32.4995 17.2091L37.485 19.6622C37.6509 19.7439 37.8359 19.7787 38.0202 19.7629C38.2044 19.7472 38.3808 19.6814 38.5304 19.5727C38.68 19.464 38.7971 19.3166 38.8691 19.1462C38.941 18.9759 38.9651 18.7891 38.9387 18.6061L38.1463 13.1091L42.0192 9.12729C42.1481 8.99477 42.2384 8.82958 42.2804 8.64952C42.3223 8.46946 42.3143 8.28137 42.2572 8.10552C42.2001 7.92968 42.0961 7.77275 41.9564 7.65166C41.8167 7.53057 41.6466 7.44991 41.4644 7.41838L35.9897 6.47067L33.3977 1.55759C33.3115 1.39406 33.1823 1.25717 33.024 1.16166C32.8657 1.06616 32.6844 1.01566 32.4995 1.01562C32.3146 1.01567 32.1332 1.06619 31.9749 1.16174C31.8166 1.25729 31.6874 1.39425 31.6012 1.55784L29.0128 6.47093L23.5384 7.41851C23.3562 7.45004 23.1861 7.5307 23.0464 7.65179C22.9067 7.77288 22.8027 7.9298 22.7456 8.10565C22.6885 8.28149 22.6805 8.46958 22.7225 8.64964C22.7644 8.8297 22.8547 8.9949 22.9836 9.12742L26.8561 13.1089ZM29.8514 8.3869C30.0046 8.36038 30.1497 8.29904 30.2754 8.2076C30.4011 8.11617 30.5042 7.99709 30.5767 7.85954L32.4995 4.209L34.4258 7.86005C34.4983 7.99748 34.6013 8.11644 34.727 8.20778C34.8527 8.29912 34.9977 8.3604 35.1508 8.3869L39.22 9.09124L36.3419 12.0509C36.2335 12.1624 36.1521 12.2973 36.104 12.4452C36.056 12.5931 36.0425 12.7501 36.0647 12.904L36.6536 16.9892L32.9479 15.1658C32.8084 15.0971 32.6549 15.0614 32.4994 15.0614C32.3439 15.0614 32.1904 15.0971 32.0509 15.1658L28.3492 16.9885L28.9379 12.9039C28.96 12.75 28.9466 12.593 28.8985 12.4451C28.8505 12.2973 28.7691 12.1624 28.6607 12.0509L25.7821 9.09124L29.8514 8.3869ZM8.00607 14.8219L7.46183 18.6065C7.43551 18.7895 7.45966 18.9763 7.53167 19.1466C7.60368 19.3169 7.72082 19.4643 7.87046 19.5729C8.0201 19.6816 8.19656 19.7473 8.3808 19.763C8.56504 19.7787 8.75007 19.7438 8.91595 19.6621L12.3463 17.9722L15.7733 19.6619C15.9392 19.7436 16.1242 19.7786 16.3085 19.7629C16.4927 19.7472 16.6692 19.6815 16.8189 19.5729C16.9685 19.4643 17.0857 19.3169 17.1578 19.1466C17.2298 18.9763 17.254 18.7895 17.2277 18.6065L16.6834 14.8223L19.3506 12.0819C19.4796 11.9494 19.5699 11.7842 19.6119 11.6041C19.6538 11.4241 19.6459 11.236 19.5888 11.0601C19.5317 10.8842 19.4277 10.7273 19.288 10.6062C19.1484 10.4851 18.9782 10.4044 18.7961 10.3728L15.0273 9.72029L13.2449 6.34017C13.1587 6.1767 13.0295 6.03986 12.8713 5.94438C12.7131 5.8489 12.5318 5.7984 12.347 5.79833C12.1622 5.79832 11.981 5.84871 11.8227 5.94407C11.6645 6.03944 11.5352 6.17617 11.4489 6.33953L9.66269 9.72029L5.897 10.373C5.7149 10.4045 5.54485 10.4852 5.4052 10.6062C5.26554 10.7273 5.16157 10.8842 5.10447 11.0599C5.04738 11.2357 5.03934 11.4237 5.08121 11.6038C5.12308 11.7838 5.21328 11.949 5.34209 12.0815L8.00607 14.8219ZM10.5011 11.6365C10.6541 11.61 10.7989 11.5488 10.9245 11.4576C11.0502 11.3664 11.1532 11.2476 11.2257 11.1103L12.3457 8.99019L13.4629 11.1103C13.5354 11.2478 13.6385 11.3668 13.7642 11.4582C13.8899 11.5496 14.0349 11.6109 14.1881 11.6374L16.5508 12.0465L14.8787 13.7645C14.7702 13.876 14.6888 14.0108 14.6407 14.1587C14.5927 14.3065 14.5792 14.4635 14.6013 14.6174L14.9423 16.9885L12.7951 15.93C12.6555 15.8611 12.5019 15.8254 12.3462 15.8254C12.1905 15.8254 12.037 15.8611 11.8973 15.93L9.74609 16.9896L10.0872 14.6176C10.1093 14.4638 10.0959 14.307 10.0478 14.1592C9.99982 14.0114 9.91852 13.8766 9.81021 13.7651L8.14014 12.0457L10.5011 11.6365ZM48.3157 14.8219L47.772 18.6065C47.7457 18.7895 47.7698 18.9763 47.8418 19.1466C47.9138 19.3169 48.031 19.4643 48.1806 19.5729C48.3303 19.6816 48.5067 19.7473 48.691 19.763C48.8752 19.7787 49.0602 19.7438 49.2261 19.6621L52.6566 17.9722L56.0873 19.6621C56.2532 19.7439 56.4383 19.7787 56.6227 19.763C56.807 19.7472 56.9835 19.6814 57.1331 19.5727C57.2828 19.4639 57.3999 19.3164 57.4718 19.146C57.5438 18.9755 57.5678 18.7887 57.5413 18.6056L56.994 14.8224L59.6608 12.0824C59.7897 11.9499 59.88 11.7847 59.922 11.6046C59.964 11.4246 59.956 11.2365 59.8989 11.0606C59.8419 10.8848 59.7379 10.7278 59.5982 10.6067C59.4585 10.4856 59.2884 10.4049 59.1062 10.3733L55.3374 9.7208L53.5544 6.34017C53.4682 6.17668 53.339 6.03983 53.1808 5.94435C53.0225 5.84887 52.8412 5.79838 52.6564 5.79833C52.4716 5.79834 52.2904 5.84874 52.1322 5.94411C51.9739 6.03947 51.8447 6.17619 51.7584 6.33953L49.9726 9.72029L46.2069 10.373C46.0248 10.4045 45.8547 10.4851 45.7151 10.6062C45.5754 10.7272 45.4714 10.8841 45.4143 11.0599C45.3572 11.2357 45.3491 11.4237 45.391 11.6037C45.4329 11.7838 45.5231 11.9489 45.6519 12.0815L48.3157 14.8219ZM50.8106 11.6365C50.9636 11.61 51.1085 11.5488 51.2341 11.4575C51.3597 11.3663 51.4627 11.2475 51.5353 11.1102L52.6552 8.99006L53.7724 11.1102C53.8449 11.2477 53.948 11.3667 54.0737 11.4581C54.1994 11.5495 54.3444 11.6108 54.4976 11.6373L56.8604 12.0463L55.1882 13.7644C55.0797 13.8759 54.9982 14.0109 54.9501 14.159C54.9021 14.307 54.8886 14.4641 54.9109 14.6181L55.2537 16.9884L53.1044 15.9296C52.9647 15.8609 52.8112 15.8251 52.6556 15.8251C52.4999 15.8251 52.3464 15.8609 52.2067 15.9296L50.0556 16.9891L50.3967 14.6174C50.4189 14.4635 50.4054 14.3067 50.3574 14.1589C50.3094 14.011 50.2281 13.8762 50.1197 13.7648L48.4497 12.0457L50.8106 11.6365Z" fill="#4F70E6"/>
</svg>
