<svg width="45" height="45" viewBox="0 0 45 45" fill="none" xmlns="http://www.w3.org/2000/svg">
<g clipPath="url(#clip0_8551_3262)">
<path d="M39.2138 10.5469H27.788V2.63671C27.788 1.18283 26.6052 0 25.1513 0H4.05761C2.60373 0 1.4209 1.18283 1.4209 2.63671V42.3634C1.4209 43.8173 2.60373 45.0001 4.05761 45.0001H25.1514C26.6053 45.0001 27.7881 43.8173 27.7881 42.3634V19.3359H39.2139C45.0354 19.1153 45.0343 10.7668 39.2138 10.5469ZM21.6356 43.2422H7.57323V29.0038C7.57323 28.5192 7.96751 28.1249 8.45213 28.1249H20.7568C21.2414 28.1249 21.6357 28.5192 21.6357 29.0038V43.2422H21.6356ZM26.0302 42.3634C26.0302 42.848 25.6359 43.2423 25.1513 43.2423H23.3934V29.0038C23.3934 27.55 22.2106 26.3671 20.7567 26.3671H8.45205C6.99816 26.3671 5.81533 27.55 5.81533 29.0038V43.2423H4.05752C3.5729 43.2423 3.17862 42.848 3.17862 42.3634V2.63671C3.17862 2.15209 3.5729 1.75781 4.05752 1.75781H25.1513C25.6359 1.75781 26.0302 2.15209 26.0302 2.63671V10.5469H22.2161C17.7277 2.82656 5.86279 5.99501 5.81542 14.9416C5.86315 23.8884 17.7291 27.0559 22.2161 19.3359H26.0302V42.3634ZM14.6045 19.3359H20.0952C15.9952 24.4824 7.57595 21.5564 7.57332 14.9413C7.57604 8.3263 15.9964 5.40034 20.0952 10.5469H14.6045C8.78234 10.7676 8.78436 19.1161 14.6045 19.3359ZM39.2138 17.5781H14.6045C11.1181 17.4488 11.106 12.439 14.6045 12.3047H39.2138C42.7001 12.434 42.7124 17.4437 39.2138 17.5781Z" fill="#4F70E6"/>
<path d="M14.6047 31.2891C12.4918 31.2891 10.5054 32.1119 9.01132 33.6059C8.6681 33.9491 8.6681 34.5056 9.01132 34.8489C9.35453 35.1922 9.91105 35.1921 10.2544 34.8489C12.5444 32.462 16.665 32.4621 18.955 34.849C19.1266 35.0205 19.3516 35.1063 19.5765 35.1063C20.3394 35.1199 20.755 34.1466 20.1979 33.6059C18.7039 32.1119 16.7175 31.2891 14.6047 31.2891Z" fill="#4F70E6"/>
<path d="M14.6045 34.8047C13.4307 34.8047 12.3271 35.2618 11.4971 36.0918C10.7034 36.9426 11.8884 38.1292 12.7402 37.3348C13.7216 36.3118 15.4876 36.3119 16.469 37.3348C17.3188 38.1287 18.5069 36.9434 17.712 36.0918C16.8819 35.2618 15.7783 34.8047 14.6045 34.8047Z" fill="#4F70E6"/>
<path d="M14.6045 38.3203C14.1191 38.3203 13.7256 38.7138 13.7256 39.1992C13.7687 40.3639 15.4411 40.3637 15.4837 39.1992C15.4837 38.7139 15.0899 38.3203 14.6045 38.3203Z" fill="#4F70E6"/>
</g>
<defs>
<clipPath id="clip0_8551_3262">
<rect width="45" height="45" fill="white"/>
</clipPath>
</defs>
</svg>
