<svg width="45" height="45" viewBox="0 0 45 45" fill="none" xmlns="http://www.w3.org/2000/svg">
<path d="M40.9181 18.457C40.9181 8.27979 32.6383 0 22.4612 0C2.17599 0.336971 -2.97525 27.6793 15.4299 35.5224V37.7928C15.4299 39.2467 16.6128 40.4295 18.0666 40.4295H21.5823V44.1211C21.5823 44.6065 21.9757 45 22.4612 45C22.9466 45 23.3401 44.6065 23.3401 44.1211V40.4295H26.8557C28.3096 40.4295 29.4924 39.2467 29.4924 37.7928V35.5224C36.1921 32.7518 40.9181 26.146 40.9181 18.457ZM27.7345 37.7928C27.7345 38.2774 27.3402 38.6717 26.8556 38.6717H18.0666C17.5819 38.6717 17.1877 38.2774 17.1877 37.7928V36.1465C20.5016 37.1641 24.4205 37.1641 27.7345 36.1465V37.7928ZM22.4611 35.1561C13.2532 35.1561 5.76192 27.6649 5.76192 18.457C6.60145 -3.66634 38.3241 -3.66028 39.1603 18.4571C39.1603 27.6649 31.6691 35.1561 22.4611 35.1561Z" fill="#4F70E6"/>
<path d="M22.4609 4.39453C14.7069 4.39453 8.39844 10.7029 8.39844 18.457C9.10543 37.0871 35.8192 37.082 36.5233 18.4568C36.5233 10.7029 30.215 4.39453 22.4609 4.39453ZM22.4609 30.7616C15.6761 30.7616 10.1562 25.2418 10.1562 18.457C10.7748 2.15553 34.1494 2.16001 34.7655 18.4572C34.7655 25.2418 29.2457 30.7616 22.4609 30.7616Z" fill="#4F70E6"/>
<path d="M26.8553 16.1798H24.5052L26.0285 10.4948C26.268 9.5631 25.0584 8.97353 24.4737 9.74363L17.3604 19.3314C16.9279 19.8866 17.3602 20.7513 18.0664 20.7339H20.4165L18.8931 26.4189C18.6498 27.3451 19.8669 27.9419 20.448 27.1701L27.5613 17.5823C27.9935 17.0277 27.5616 16.1621 26.8553 16.1798ZM21.7851 22.4175L22.4108 20.0826C22.57 19.5449 22.1223 18.9615 21.5619 18.9762H19.8127L23.1365 14.4961L22.5108 16.8311C22.3516 17.3688 22.7993 17.9522 23.3597 17.9375H25.1088L21.7851 22.4175Z" fill="#4F70E6"/>
</svg>
