<svg xmlns="http://www.w3.org/2000/svg" version="1.1" xmlns:xlink="http://www.w3.org/1999/xlink" xmlns:svgjs="http://svgjs.dev/svgjs" width="1440" height="560" preserveAspectRatio="none" viewBox="0 0 1440 560"><g mask="url(&quot;#SvgjsMask1033&quot;)" fill="none"><path d="M646.56 583.84C742.73 580.76 718.67 438.91 1000.76 433.24 1282.84 427.57 1523 206.48 1709.15 203.64" stroke="rgba(79, 112, 230, 0.5)" stroke-width="2"></path><path d="M266.22 575.24C402.22 563.42 490.64 285.51 728.11 283.97 965.58 282.43 959.06 353.97 1190 353.97 1420.95 353.97 1535.1 284.17 1651.89 283.97" stroke="rgba(79, 112, 230, 0.5)" stroke-width="2"></path><path d="M434.62 632.15C591.23 613.9 658.69 280.87 947.49 265.11 1236.28 249.35 1325.45 99.23 1460.35 97.11" stroke="rgba(79, 112, 230, 0.5)" stroke-width="2"></path><path d="M825.18 626.89C933.48 625.18 1010.17 500.94 1236.84 491.82 1463.5 482.7 1528.9 254.59 1648.49 245.42" stroke="rgba(79, 112, 230, 0.5)" stroke-width="2"></path><path d="M349.76 581.39C517.02 567.86 612.68 240.31 922.34 231.09 1232.01 221.87 1348.51 108.58 1494.93 107.89" stroke="rgba(79, 112, 230, 0.5)" stroke-width="2"></path></g><defs><mask id="SvgjsMask1033"><rect width="1440" height="560" fill="#ffffff"></rect></mask></defs></svg>