<svg width="658" height="335" viewBox="0 0 658 335" fill="none" xmlns="http://www.w3.org/2000/svg">
<g opacity="0.3" clipPath="url(#clip0_8551_2999)">
<path d="M272.184 335L349.214 257.847L351.211 259.851L276.344 335H272.184Z" fill="#4F70E6"/>
<path d="M346.053 255.008C348.216 252.837 351.876 252.837 354.039 255.008C356.202 257.179 356.202 260.853 354.039 263.024C351.876 265.195 348.216 265.195 346.053 263.024C343.724 260.853 343.724 257.179 346.053 255.008Z" fill="#4F70E6"/>
<path d="M440.219 210.252L315.939 335H311.613L439.054 207.246H472.162L551.688 127.42L553.851 129.591L473.327 210.252H440.219Z" fill="#4F70E6"/>
<path d="M548.527 124.581C550.69 122.41 554.35 122.41 556.513 124.581C558.675 126.752 558.675 130.426 556.513 132.597C554.35 134.768 550.69 134.768 548.527 132.597C546.364 130.426 546.364 126.919 548.527 124.581Z" fill="#4F70E6"/>
<path d="M517.582 165.162H564.166L653.674 75.484L651.511 73.313L562.835 162.156H517.582V165.162Z" fill="#4F70E6"/>
<path d="M648.35 70.4739C650.513 68.303 654.173 68.303 656.336 70.4739C658.499 72.6449 658.499 76.3189 656.336 78.4899C654.173 80.6609 650.513 80.6609 648.35 78.4899C646.021 76.3189 646.021 72.8119 648.35 70.4739Z" fill="#4F70E6"/>
<path d="M54.7354 284.4L4.15839 335H-0.000900269L51.7407 283.064V242.316L203.139 90.3467L205.302 92.5177L54.7354 243.652V284.4Z" fill="#4F70E6"/>
<path d="M199.978 87.6746C202.141 85.5036 205.801 85.5036 207.964 87.6746C210.127 89.8456 210.127 93.5196 207.964 95.6906C205.801 97.8616 202.141 97.8616 199.978 95.6906C197.815 93.5196 197.815 89.8456 199.978 87.6746Z" fill="#4F70E6"/>
<path d="M374.502 138.108L229.925 283.064H188.332L136.59 335H132.265L187.167 280.058H228.76L371.341 136.772V64.4619L431.235 4.34229L433.397 6.51327L374.502 65.7979V138.108Z" fill="#4F70E6"/>
<path d="M428.074 1.67023C430.237 -0.500755 433.897 -0.500755 436.06 1.67023C438.222 3.84122 438.222 7.5152 436.06 9.68618C433.897 11.8572 430.237 11.8572 428.074 9.68618C425.911 7.5152 425.911 3.84122 428.074 1.67023Z" fill="#4F70E6"/>
<path d="M205.802 282.729L322.262 165.83V122.243L349.048 95.3565V82.8315H346.053V94.1875L319.267 120.907V164.494L203.805 280.558L205.802 282.729Z" fill="#4F70E6"/>
<path d="M341.894 83.1658C341.894 79.9928 344.389 77.4878 347.55 77.4878C350.711 77.4878 353.207 79.9928 353.207 83.1658C353.207 86.3387 350.711 88.8437 347.55 88.8437C344.389 88.8437 341.894 86.3387 341.894 83.1658Z" fill="#4F70E6"/>
<path d="M166.537 236.805L261.203 141.782H278.838L304.792 115.73V82.4976L337.734 49.4318H363.355L389.143 23.547L386.98 21.543L362.19 46.4258H336.569L301.797 81.3286V114.561L277.507 138.776H260.038L164.541 234.634L166.537 236.805Z" fill="#4F70E6"/>
<path d="M383.819 18.7039C385.982 16.5329 389.642 16.5329 391.805 18.7039C393.967 20.8749 393.967 24.5489 391.805 26.7199C389.642 28.8909 385.982 28.8909 383.819 26.7199C381.656 24.5489 381.656 20.8749 383.819 18.7039Z" fill="#4F70E6"/>
<path d="M245.398 193.719L104.481 335H100.322L244.233 190.546H262.368L283.663 169.17L285.826 171.341L263.532 193.719H245.398Z" fill="#4F70E6"/>
<path d="M280.502 166.331C282.665 164.16 286.325 164.16 288.488 166.331C290.651 168.502 290.651 172.176 288.488 174.347C286.325 176.518 282.665 176.518 280.502 174.347C278.34 172.176 278.34 168.669 280.502 166.331Z" fill="#4F70E6"/>
<path d="M193.656 320.471L179.015 335H174.69L192.325 317.298H222.272L319.766 219.437L321.929 221.608L223.437 320.471H193.656Z" fill="#4F70E6"/>
<path d="M316.605 216.765C318.768 214.594 322.428 214.594 324.591 216.765C326.754 218.936 326.754 222.61 324.591 224.781C322.428 226.952 318.768 226.952 316.605 224.781C314.442 222.61 314.442 218.936 316.605 216.765Z" fill="#4F70E6"/>
<path d="M397.794 174.347L238.41 334.332V335H235.249V333.163L394.8 173.178V120.239L469.334 45.4238L471.497 47.5948L397.794 121.575V174.347Z" fill="#4F70E6"/>
<path d="M466.173 42.5848C468.336 40.4138 471.996 40.4138 474.159 42.5848C476.322 44.7558 476.322 48.4297 474.159 50.6007C471.996 52.7717 468.336 52.7717 466.173 50.6007C464.01 48.4297 464.01 44.9228 466.173 42.5848Z" fill="#4F70E6"/>
<path d="M385.482 261.855H388.477V226.451L474.658 140.113V102.872L528.729 48.5973L526.566 46.4263L471.663 101.703V138.777L385.482 225.282V261.855Z" fill="#4F70E6"/>
<path d="M523.405 43.7542C525.568 41.5832 529.228 41.5832 531.391 43.7542C533.553 45.9252 533.553 49.5992 531.391 51.7702C529.228 53.9412 525.568 53.9412 523.405 51.7702C521.242 49.5992 521.242 45.9252 523.405 43.7542Z" fill="#4F70E6"/>
<path d="M453.529 209.751L504.605 158.483V124.749L544.201 85.003L542.038 82.832L501.61 123.413V157.147L451.366 207.58L453.529 209.751Z" fill="#4F70E6"/>
<path d="M538.877 80.16C541.04 77.989 544.7 77.989 546.863 80.16C549.026 82.331 549.026 86.0049 546.863 88.1759C544.7 90.3469 541.04 90.3469 538.877 88.1759C536.715 86.0049 536.715 82.331 538.877 80.16Z" fill="#4F70E6"/>
<path d="M410.937 104.208H413.932V59.953L444.877 28.7242L442.714 26.7202L410.937 58.617V104.208Z" fill="#4F70E6"/>
<path d="M439.553 23.8812C441.716 21.7102 445.376 21.7102 447.539 23.8812C449.702 26.0522 449.702 29.7261 447.539 31.8971C445.376 34.0681 441.716 34.0681 439.553 31.8971C437.39 29.7261 437.39 26.0522 439.553 23.8812Z" fill="#4F70E6"/>
<path d="M90.0062 273.712L28.7814 335H24.4558L87.0115 272.376V241.314L169.365 158.649L171.528 160.82L90.0062 242.65V273.712Z" fill="#4F70E6"/>
<path d="M166.205 155.81C168.367 153.639 172.028 153.639 174.19 155.81C176.353 157.981 176.353 161.655 174.19 163.826C172.028 165.997 168.367 165.997 166.205 163.826C164.042 161.655 164.042 158.148 166.205 155.81Z" fill="#4F70E6"/>
<path d="M43.7555 335L160.382 217.934L162.545 220.105L47.9148 335H43.7555Z" fill="#4F70E6"/>
<path d="M165.373 223.278C167.536 221.107 167.536 217.433 165.373 215.262C163.21 213.091 159.55 213.091 157.387 215.262C155.224 217.433 155.224 221.107 157.387 223.278C159.55 225.449 163.044 225.449 165.373 223.278Z" fill="#4F70E6"/>
<path d="M422.917 188.041H425.911V119.906L465.009 80.6607L462.846 78.4897L422.917 118.57V188.041Z" fill="#4F70E6"/>
<path d="M459.851 75.6507C462.014 73.4797 465.674 73.4797 467.837 75.6507C470 77.8217 470 81.4957 467.837 83.6667C465.674 85.8376 462.014 85.8376 459.851 83.6667C457.522 81.4957 457.522 77.9887 459.851 75.6507Z" fill="#4F70E6"/>
</g>
<defs>
<clipPath id="clip0_8551_2999">
<rect width="658" height="335" fill="white" transform="matrix(-1 0 0 1 658 0)"/>
</clipPath>
</defs>
</svg>
