<svg xmlns="http://www.w3.org/2000/svg" version="1.1" xmlns:xlink="http://www.w3.org/1999/xlink" xmlns:svgjs="http://svgjs.dev/svgjs" width="1440" height="250" preserveAspectRatio="none" viewBox="0 0 1440 250"><g mask="url(&quot;#SvgjsMask1012&quot;)" fill="none"><path d="M7 250L257 0L482 0L232 250z" fill="url(&quot;#SvgjsLinearGradient1013&quot;)"></path><path d="M252.60000000000002 250L502.6 0L630.1 0L380.1 250z" fill="url(&quot;#SvgjsLinearGradient1013&quot;)"></path><path d="M476.20000000000005 250L726.2 0L1081.7 0L831.7 250z" fill="url(&quot;#SvgjsLinearGradient1013&quot;)"></path><path d="M756.8000000000001 250L1006.8000000000001 0L1257.3000000000002 0L1007.3000000000001 250z" fill="url(&quot;#SvgjsLinearGradient1013&quot;)"></path><path d="M1398 250L1148 0L1055 0L1305 250z" fill="url(&quot;#SvgjsLinearGradient1014&quot;)"></path><path d="M1191.4 250L941.4000000000001 0L683.4000000000001 0L933.4000000000001 250z" fill="url(&quot;#SvgjsLinearGradient1014&quot;)"></path><path d="M937.8 250L687.8 0L498.79999999999995 0L748.8 250z" fill="url(&quot;#SvgjsLinearGradient1014&quot;)"></path><path d="M706.1999999999999 250L456.19999999999993 0L166.69999999999993 0L416.69999999999993 250z" fill="url(&quot;#SvgjsLinearGradient1014&quot;)"></path><path d="M1291.174673822887 250L1440 101.17467382288692L1440 250z" fill="url(&quot;#SvgjsLinearGradient1013&quot;)"></path><path d="M0 250L148.82532617711308 250L 0 101.17467382288692z" fill="url(&quot;#SvgjsLinearGradient1014&quot;)"></path></g><defs><mask id="SvgjsMask1012"><rect width="1440" height="250" fill="#ffffff"></rect></mask><linearGradient x1="0%" y1="100%" x2="100%" y2="0%" id="SvgjsLinearGradient1013"><stop stop-color="rgba(79, 112, 230, 0.3)" offset="0"></stop><stop stop-opacity="0" stop-color="rgba(79, 112, 230, 0.3)" offset="0.66"></stop></linearGradient><linearGradient x1="100%" y1="100%" x2="0%" y2="0%" id="SvgjsLinearGradient1014"><stop stop-color="rgba(79, 112, 230, 0.3)" offset="0"></stop><stop stop-opacity="0" stop-color="rgba(79, 112, 230, 0.3)" offset="0.66"></stop></linearGradient></defs></svg>