<svg width="40" height="40" viewBox="0 0 40 40" fill="none" xmlns="http://www.w3.org/2000/svg">
<g clipPath="url(#clip0_8551_181)">
<path d="M20 9.32397C16.5538 9.32397 13.75 12.1277 13.75 15.574C14.0642 23.8541 25.937 23.8518 26.25 15.5739C26.25 12.1277 23.4462 9.32397 20 9.32397ZM20 20.2615C17.4153 20.2615 15.3125 18.1587 15.3125 15.574C15.5482 9.3639 24.4527 9.36562 24.6875 15.5741C24.6875 18.1587 22.5847 20.2615 20 20.2615Z" fill="#100701"/>
<path d="M20 12.8396C18.4923 12.8396 17.2656 14.0662 17.2656 15.574C17.4031 19.1965 22.5974 19.1955 22.7344 15.574C22.7344 14.0663 21.5077 12.8396 20 12.8396ZM20 16.7458C19.3538 16.7458 18.8281 16.2201 18.8281 15.574C18.887 14.0215 21.1132 14.0219 21.1719 15.574C21.1719 16.2202 20.6462 16.7458 20 16.7458Z" fill="#100701"/>
<path d="M37.6563 33.699H37.1209C35.9756 30.1114 33.715 26.9626 30.6778 24.7154C32.6284 22.4403 33.866 19.5369 34.0411 16.3552H34.8438C35.2753 16.3552 35.6251 16.0053 35.6251 15.5739C34.8388 -5.12777 5.15702 -5.11917 4.37515 15.5741C4.37515 16.0054 4.72491 16.3552 5.1564 16.3552H5.95913C6.13421 19.5369 7.37186 22.4403 9.32248 24.7154C6.28514 26.9626 4.02476 30.1112 2.87937 33.699H2.34375C1.0514 33.699 0 34.7504 0 36.0428V39.1678C0 39.5992 0.349765 39.949 0.781248 39.949H39.2188C39.6502 39.949 40 39.5992 40 39.1678V36.0428C40 34.7504 38.9487 33.699 37.6563 33.699ZM35.4726 33.699H20.7813V29.6149C24.1746 29.4282 27.251 28.0329 29.5867 25.8533C32.3059 27.8146 34.362 30.5585 35.4726 33.699ZM20 1.51144C27.4919 1.51144 33.6342 7.40065 34.0411 14.7927H30.1265C28.8397 2.37526 11.1558 2.38433 9.8735 14.7927H5.95897C6.36585 7.40065 12.5081 1.51144 20 1.51144ZM28.5938 15.5739C28.5938 20.3125 24.7386 24.1676 20 24.1676C8.61491 23.7356 8.61803 7.41049 20.0001 6.98018C24.7386 6.98018 28.5938 10.8353 28.5938 15.5739ZM9.87357 16.3552C11.1604 28.7726 28.8442 28.7635 30.1266 16.3552H32.4759C31.0682 31.8757 8.92623 31.8642 7.52428 16.3552H9.87357ZM10.4134 25.8533C12.749 28.0329 15.8255 29.4282 19.2188 29.6149V33.699H4.52757C5.63804 30.5585 7.69413 27.8146 10.4134 25.8533ZM38.4375 38.3865H1.5625V36.0428C1.5625 35.6119 1.91296 35.2615 2.34375 35.2615H37.6563C38.0871 35.2615 38.4376 35.6119 38.4376 36.0428V38.3865H38.4375Z" fill="#100701"/>
</g>
<defs>
<clipPath id="clip0_8551_181">
<rect width="40" height="40" fill="white"/>
</clipPath>
</defs>
</svg>
