<svg width="40" height="40" viewBox="0 0 40 40" fill="none" xmlns="http://www.w3.org/2000/svg">
<g clipPath="url(#clip0_8551_170)">
<path d="M18.5943 21.4022C18.1629 19.2871 15.5585 18.2918 13.8103 19.6034C13.1152 20.1085 12.6053 20.9072 12.3358 21.9131C11.8728 23.6871 12.0334 26.5998 12.9627 27.3197C14.0374 27.9511 16.6084 28.0937 18.0833 27.6606H18.0833C19.0892 27.3911 19.8879 26.8812 20.393 26.1861C21.7045 24.4382 20.7096 21.8331 18.5943 21.4022ZM17.679 26.1514C16.3019 26.5205 14.6378 26.3177 13.9404 26.056C13.4678 24.8939 13.2541 20.4092 15.8098 20.587C16.4354 20.6694 17.1088 21.18 17.1088 22.1066C17.1088 22.538 17.4586 22.8878 17.89 22.8878C18.8164 22.8878 19.3271 23.5611 19.4095 24.1867C19.5502 25.2557 18.6079 25.9025 17.679 26.1514Z" fill="#100701"/>
<path d="M22.2101 10.7432C21.1772 10.779 21.1749 12.2691 22.2101 12.3056C23.6742 12.3056 25.0506 12.8758 26.0858 13.911C27.1211 14.9462 27.6912 16.3227 27.6912 17.7867C27.6912 18.2181 28.041 18.5679 28.4724 18.5679C28.9038 18.5679 29.2536 18.2181 29.2536 17.7867C29.3319 14.0007 25.9961 10.6648 22.2101 10.7432Z" fill="#100701"/>
<path d="M22.2101 13.8744C21.1765 13.9102 21.1756 15.4008 22.2101 15.4368C22.8377 15.4368 23.4279 15.6813 23.8717 16.1252C24.3155 16.5691 24.56 17.1591 24.56 17.7868C24.56 18.2182 24.9098 18.568 25.3412 18.568C25.7726 18.568 26.1224 18.2182 26.1224 17.7868C26.1224 16.7418 25.7155 15.7593 24.9765 15.0204C24.2374 14.2814 23.255 13.8744 22.2101 13.8744Z" fill="#100701"/>
<path d="M21.6575 17.2341C21.1634 17.7145 21.5303 18.5797 22.2101 18.5681C22.89 18.5797 23.2567 17.7145 22.7624 17.2341C22.4573 16.9291 21.9628 16.9291 21.6575 17.2341Z" fill="#100701"/>
<path d="M39.0357 6.27469L33.722 0.960902C32.4407 -0.320301 30.356 -0.320301 29.0748 0.960902L25.1505 4.88521C23.4129 5.18387 21.8163 6.00532 20.5506 7.27098L7.26615 20.5554C5.96588 21.8557 5.16927 23.4719 4.87639 25.1592L0.956068 29.0797C-0.314666 30.298 -0.3149 32.5086 0.956068 33.7269L6.26978 39.0407C6.88843 39.6594 7.71371 40.0002 8.59344 40.0001C9.47325 40.0001 10.2985 39.6593 10.917 39.0407L14.8414 35.1164C16.5789 34.8177 18.1755 33.9963 19.4412 32.7307L32.7256 19.4462C33.9913 18.1804 34.8128 16.5838 35.1114 14.8463L39.0357 10.9219C40.317 9.64074 40.317 7.55589 39.0357 6.27469ZM9.81222 37.9359C9.17537 38.6001 8.01135 38.6005 7.37466 37.9358L2.06087 32.6221C1.73721 32.2985 1.55901 31.8657 1.55901 31.4033C1.55901 30.9409 1.73721 30.508 2.06087 30.1844L4.78702 27.4582C5.05256 31.377 8.54477 34.9419 12.5427 35.2053L9.81222 37.9359ZM31.6207 18.3413L18.3364 31.6257C15.7289 34.3463 10.9784 34.3472 8.37103 31.6256C5.62355 28.8782 5.62355 24.4077 8.37103 21.6603L21.6554 8.37594C24.4028 5.62846 28.8733 5.62838 31.6208 8.37594C34.342 10.9837 34.3419 15.7337 31.6207 18.3413ZM37.9309 9.81713L35.2006 12.5476C34.9016 8.53554 31.4613 5.0952 27.4492 4.79623L30.1796 2.06586C30.8516 1.3937 31.9452 1.39385 32.6172 2.06586L37.9309 7.37965C38.603 8.05158 38.603 9.14505 37.9309 9.81713Z" fill="#100701"/>
</g>
<defs>
<clipPath id="clip0_8551_170">
<rect width="40" height="40" fill="white"/>
</clipPath>
</defs>
</svg>
