<svg width="40" height="40" viewBox="0 0 40 40" fill="none" xmlns="http://www.w3.org/2000/svg">
<path d="M11.6016 7.50003C12.033 7.50003 12.3828 7.15019 12.3828 6.71878V5.15628C12.3447 4.12152 10.8587 4.12097 10.8203 5.15628V6.71878C10.8203 7.15019 11.1702 7.50003 11.6016 7.50003Z" fill="#100701"/>
<path d="M19.0234 7.50003C19.4548 7.50003 19.8047 7.15019 19.8047 6.71878V5.15628C19.7666 4.12152 18.2805 4.12097 18.2422 5.15628V6.71878C18.2422 7.15019 18.592 7.50003 19.0234 7.50003Z" fill="#100701"/>
<path d="M11.4451 21.8362C12.4779 20.8032 13.8513 20.2344 15.312 20.2344C16.7727 20.2344 18.1461 20.8032 19.179 21.8362C19.3315 21.9887 19.5315 22.065 19.7314 22.065C20.4096 22.0771 20.779 21.2119 20.2838 20.7314C18.9558 19.4033 17.1901 18.672 15.312 18.672C13.4339 18.672 11.6682 19.4033 10.3401 20.7314C10.0351 21.0365 10.0351 21.5311 10.3401 21.8363C10.6454 22.1412 11.1399 22.1412 11.4451 21.8362Z" fill="#100701"/>
<path d="M15.3122 21.7969C14.2689 21.7969 13.288 22.2032 12.5502 22.941C11.8445 23.697 12.898 24.7521 13.6549 24.0459C14.5277 23.1366 16.097 23.1366 16.9697 24.0459C17.7248 24.7516 18.7811 23.6977 18.0745 22.9409C17.3365 22.2032 16.3555 21.7969 15.3122 21.7969Z" fill="#100701"/>
<path d="M15.3125 24.9219C14.8811 24.9219 14.5312 25.2717 14.5312 25.7031C14.5695 26.7384 16.0561 26.7382 16.0941 25.7031C16.0941 25.2717 15.744 24.9219 15.3125 24.9219Z" fill="#100701"/>
<path d="M33.2811 28.5937H32.4999V7.50005C32.4999 6.20771 31.4485 5.15631 30.1562 5.15631C28.8638 5.15631 27.8124 6.20771 27.8124 7.50005V28.5937H24.6874V12.6564C24.6874 11.6378 24.0343 10.7689 23.1249 10.4465V0.781247C23.1249 0.349842 22.7751 0 22.3437 0H8.28124C7.84984 0 7.49999 0.349842 7.49999 0.781247V10.4465C6.59062 10.7689 5.9375 11.6378 5.9375 12.6564V37.6563C5.9375 38.9486 6.9889 40 8.28124 40H22.3437C23.636 40 24.6874 38.9486 24.6874 37.6563V34.8437H31.7186C33.011 34.8437 34.0624 33.7923 34.0624 32.5V29.375C34.0624 28.9436 33.7125 28.5937 33.2811 28.5937ZM29.3749 7.50005C29.4134 6.46677 30.8976 6.46372 30.9374 7.50005V28.5937H29.3749V7.50005ZM21.5624 10.3126H15.7031V7.24669L16.445 4.99881C16.4711 4.91982 16.4843 4.83717 16.4843 4.75397V1.56249H21.5624V10.3126ZM14.9218 1.56249V4.62834L14.18 6.87622C14.1539 6.95521 14.1406 7.03786 14.1406 7.12107V10.3126H9.06249V1.56249H14.9218ZM8.28124 11.8751H22.3437C22.7745 11.8751 23.1249 12.2256 23.1249 12.6564V33.2812H7.49999V12.6564C7.49999 12.2256 7.85046 11.8751 8.28124 11.8751ZM23.1249 37.6563C23.1249 38.087 22.7745 38.4375 22.3437 38.4375H8.28124C7.85046 38.4375 7.49999 38.087 7.49999 37.6563V34.8437H23.1249V37.6563ZM32.4999 32.5C32.4999 32.9307 32.1494 33.2812 31.7186 33.2812H24.6874V30.1562H32.4999V32.5Z" fill="#100701"/>
</svg>
