<svg width="45" height="45" viewBox="0 0 45 45" fill="none" xmlns="http://www.w3.org/2000/svg">
<path d="M22.5 0C15.2625 0 9.37503 5.8875 9.37503 13.125C9.37503 20.3625 15.2625 26.25 22.5 26.25C29.7375 26.25 35.625 20.3625 35.625 13.125C35.625 5.8875 29.7375 0 22.5 0ZM29.6007 12.6694L27.0488 15.285L27.6544 18.9937C27.6964 19.2541 27.6644 19.5209 27.562 19.7639C27.4596 20.0069 27.2909 20.2162 27.0753 20.3679C26.8596 20.5196 26.6057 20.6076 26.3424 20.6219C26.0791 20.6362 25.8171 20.5762 25.5863 20.4487L22.5 18.7444L19.4138 20.4506C19.1829 20.5796 18.9202 20.6407 18.6561 20.627C18.392 20.6132 18.1371 20.5252 17.9208 20.3729C17.7045 20.2207 17.5356 20.0105 17.4335 19.7665C17.3314 19.5225 17.3003 19.2546 17.3438 18.9937L17.9494 15.285L15.3994 12.6694C15.2189 12.4843 15.093 12.253 15.0354 12.001C14.9778 11.7489 14.9908 11.4859 15.073 11.2408C15.1551 10.9957 15.3033 10.7779 15.5011 10.6115C15.6989 10.4451 15.9388 10.3365 16.1944 10.2975L19.665 9.76688L21.2288 6.435C21.69 5.44687 23.3119 5.44687 23.7732 6.435L25.3369 9.76688L28.8075 10.2975C29.0637 10.3355 29.3043 10.4437 29.5028 10.61C29.7013 10.7764 29.8498 10.9945 29.9319 11.2401C30.014 11.4857 30.0266 11.7492 29.9681 12.0015C29.9096 12.2538 29.7824 12.4849 29.6007 12.6694ZM11.175 24.3375L3.91878 37.3688C3.67503 37.8188 3.69378 38.3813 3.97503 38.8125C4.25628 39.2438 4.74378 39.5063 5.26878 39.45L11.0438 39.0187L13.5938 44.2125C13.8375 44.6813 14.3063 44.9813 14.8125 45H14.85C15.3563 45 15.8438 44.7188 16.0875 44.2875L20.8125 35.8875L16.2188 27.7688C14.3336 26.9581 12.6214 25.7933 11.175 24.3375ZM41.0625 37.3688L33.75 24.4125C31.3177 26.846 28.1578 28.4194 24.75 28.8937C24.0188 29.0063 23.2688 29.0625 22.5 29.0625C21.675 29.0625 20.8688 29.0062 20.0813 28.875L22.425 33.0188L28.7813 44.2875C29.025 44.7188 29.4938 45 30 45H30.0375C30.5625 44.9813 31.0313 44.6813 31.275 44.2125L33.8438 39.0187L39.7313 39.4688C40.2563 39.5062 40.7438 39.2625 41.025 38.8125C41.3063 38.3813 41.325 37.8188 41.0625 37.3688Z" fill="#E5E8F2"/>
</svg>
